var vollkorn = {"glyphs":{"S":{"x_min":94.453125,"x_max":662.546875,"ha":743,"o":"m 366 951 q 500 932 444 951 q 584 890 555 913 q 586 797 584 850 q 593 707 587 744 q 556 697 577 700 q 515 694 534 694 q 490 792 504 754 q 457 852 476 830 q 416 882 438 873 q 366 890 393 890 q 268 854 304 890 q 231 751 231 818 q 263 651 231 690 q 343 581 295 612 q 447 524 391 551 q 550 461 502 497 q 630 376 598 426 q 662 250 662 326 q 641 149 662 197 q 581 65 619 101 q 493 8 544 29 q 380 -12 441 -12 q 295 -7 331 -12 q 227 7 258 -2 q 164 34 195 18 q 94 76 133 51 q 104 181 102 129 q 106 273 106 234 q 143 279 122 277 q 181 281 163 281 q 195 187 184 229 q 229 115 206 145 q 290 70 252 86 q 387 54 329 54 q 455 65 426 54 q 504 97 484 77 q 534 142 523 116 q 544 197 544 168 q 512 298 544 259 q 432 366 480 337 q 328 420 384 394 q 224 481 272 445 q 144 569 176 516 q 112 707 112 622 q 131 806 112 761 q 183 884 150 851 q 263 934 216 916 q 366 951 309 951 "},"\u0000":{"x_min":0,"x_max":0,"ha":695},"/":{"x_min":45.84375,"x_max":463.921875,"ha":507,"o":"m 105 -12 q 69 4 86 -5 q 45 23 52 13 l 404 990 q 436 975 419 986 q 463 954 454 965 l 105 -12 "},"K":{"x_min":79.171875,"x_max":911.1875,"ha":942,"o":"m 181 762 q 161 856 181 832 q 86 883 141 880 q 79 943 79 902 q 247 938 155 938 q 332 939 291 938 q 415 943 373 940 q 408 883 415 902 q 332 856 352 880 q 312 762 312 832 l 312 493 l 561 754 q 613 816 597 791 q 628 854 629 840 q 614 875 627 869 q 579 883 601 882 q 573 912 575 897 q 572 943 572 927 q 634 939 595 940 q 715 938 673 938 q 858 943 801 938 q 857 912 858 929 q 850 883 855 895 q 804 876 826 882 q 760 857 783 870 q 711 821 737 844 q 651 763 684 798 l 426 522 q 516 423 473 481 q 625 283 569 355 q 694 197 658 238 q 766 125 730 156 q 838 75 802 94 q 911 55 875 56 q 909 29 911 44 q 904 0 908 13 q 793 -1 851 0 q 683 -8 734 -2 q 613 95 658 31 q 513 229 568 159 q 398 362 458 298 q 312 451 352 413 l 312 176 q 332 82 312 106 q 408 55 352 58 q 415 -4 415 36 q 247 0 331 0 q 161 0 206 0 q 79 -4 115 -1 q 86 55 79 36 q 161 82 141 58 q 181 176 181 106 l 181 762 "},"7":{"x_min":69.453125,"x_max":618.109375,"ha":674,"o":"m 420 694 q 495 695 461 694 q 556 696 530 695 q 597 697 581 697 q 609 684 604 693 q 618 666 615 676 q 511 479 565 575 q 400 275 456 384 q 345 154 366 209 q 310 46 323 98 q 292 -57 297 -5 q 287 -168 287 -109 q 232 -205 259 -186 q 188 -244 205 -225 q 169 -234 176 -241 q 162 -219 162 -227 q 173 -113 162 -175 q 204 13 184 -52 q 238 104 213 48 q 297 231 262 159 q 379 387 333 302 q 481 568 426 472 l 261 568 q 210 565 231 568 q 173 552 188 562 q 147 522 158 541 q 126 472 136 504 q 96 476 112 472 q 69 488 80 480 q 87 590 81 541 q 93 697 93 638 q 201 694 147 694 l 420 694 "},"d":{"x_min":55.5625,"x_max":734.78125,"ha":781,"o":"m 401 648 q 470 641 441 648 q 516 629 491 636 l 516 798 q 513 841 516 823 q 500 872 511 859 q 468 891 488 884 q 412 897 447 897 q 415 925 412 912 q 425 948 418 937 q 466 952 440 948 q 520 963 493 957 q 573 978 548 969 q 611 995 598 987 q 632 979 623 991 q 641 940 641 966 l 641 176 q 659 113 643 133 q 734 90 676 93 q 733 60 734 75 q 726 30 732 45 q 688 27 711 30 q 642 18 665 23 q 598 4 619 12 q 565 -12 577 -4 q 541 5 552 -8 q 530 55 530 19 q 531 105 530 80 q 537 150 533 123 q 525 125 531 136 q 505 90 512 101 q 478 56 495 75 q 436 23 461 38 q 380 -2 411 8 q 315 -12 350 -12 q 124 61 193 -12 q 55 295 55 134 q 80 432 55 368 q 150 545 105 497 q 259 620 195 593 q 401 648 323 648 m 501 216 q 516 318 513 258 l 516 534 q 475 565 497 551 q 394 584 443 584 q 330 573 365 584 q 265 531 295 562 q 213 449 234 501 q 193 313 193 397 q 209 201 193 247 q 247 127 225 155 q 297 87 270 100 q 348 75 325 75 q 409 88 379 75 q 463 134 438 102 q 501 216 487 166 "},",":{"x_min":83.34375,"x_max":276.40625,"ha":360,"o":"m 229 134 q 276 34 276 116 q 264 -46 276 -6 q 231 -123 252 -86 q 184 -194 211 -161 q 127 -256 156 -227 q 83 -236 100 -256 q 149 -141 126 -187 q 172 -59 172 -95 q 106 9 172 1 q 109 49 106 23 q 118 93 111 75 q 177 109 150 100 q 229 134 205 119 "},"Y":{"x_min":34.71875,"x_max":840.34375,"ha":875,"o":"m 508 409 l 508 226 q 511 138 508 170 q 526 90 515 106 q 558 66 537 73 q 615 55 579 59 q 623 -4 623 30 l 531 -1 q 447 0 486 0 l 397 0 q 344 0 370 0 q 295 -2 318 -1 q 258 -2 272 -2 q 260 27 258 12 q 266 55 262 43 q 325 64 304 58 q 359 86 347 70 q 374 130 370 101 q 377 208 377 159 l 377 408 l 145 802 q 121 840 131 825 q 100 865 111 855 q 75 879 88 875 q 43 884 62 883 q 36 913 37 900 q 34 941 34 926 q 101 939 63 940 q 179 938 138 938 l 275 938 q 325 939 301 938 q 365 941 348 940 q 363 914 365 926 q 358 887 362 902 q 296 859 304 882 q 320 783 288 837 q 409 626 362 711 q 484 484 450 554 q 554 615 518 550 q 632 755 595 693 q 660 850 670 823 q 594 884 650 876 q 587 913 590 900 q 584 941 584 926 q 648 938 609 938 l 720 938 q 784 939 752 938 q 840 941 816 940 q 834 887 840 913 q 800 872 815 882 q 768 847 784 863 q 733 804 751 830 q 693 737 715 777 l 508 409 "},"E":{"x_min":79.171875,"x_max":751.453125,"ha":811,"o":"m 675 943 q 679 891 676 919 q 686 832 683 862 q 694 774 690 802 q 704 723 698 745 q 677 710 693 713 q 641 707 661 707 q 628 770 638 738 q 592 827 618 802 q 523 868 566 852 q 413 883 480 883 l 313 883 l 313 502 l 372 502 q 444 507 415 502 q 491 525 473 512 q 518 559 509 537 q 526 615 526 581 q 559 622 544 620 q 593 625 573 625 q 590 548 590 588 l 590 393 q 593 312 590 348 q 559 313 573 312 q 529 319 544 315 q 517 379 526 355 q 490 417 508 402 q 443 437 472 431 q 372 443 415 443 l 313 443 l 313 191 q 318 127 313 152 q 337 88 323 102 q 375 68 351 73 q 438 62 400 62 l 447 62 q 551 73 511 62 q 617 106 591 84 q 659 161 643 129 q 690 237 675 194 q 725 223 711 230 q 751 204 738 216 q 725 100 736 155 q 708 -2 715 45 q 657 -2 687 -2 q 591 0 627 -1 q 516 0 555 0 l 348 0 q 246 0 297 0 q 150 -2 195 -1 q 79 -4 105 -2 q 86 55 79 36 q 132 63 113 56 q 162 84 151 69 q 178 125 173 100 q 183 191 183 151 l 183 762 q 163 856 183 832 q 87 883 143 880 q 81 910 83 894 q 80 943 80 926 q 133 941 101 941 q 199 939 165 940 q 263 938 233 938 l 313 938 q 548 940 456 938 q 675 943 640 941 "},"y":{"x_min":27.78125,"x_max":737.5625,"ha":765,"o":"m 533 413 q 554 487 551 458 q 550 535 558 516 q 521 563 541 554 q 470 579 501 573 q 461 638 461 607 q 526 636 493 636 l 670 636 q 737 638 705 636 q 736 609 737 625 q 729 579 736 594 q 695 566 709 575 q 670 542 682 558 q 645 500 658 526 q 616 434 633 473 l 412 -51 q 341 -204 372 -145 q 284 -293 311 -262 q 229 -335 256 -325 q 170 -345 202 -345 q 104 -335 129 -345 q 66 -313 80 -325 q 62 -261 61 -293 q 68 -212 63 -230 q 156 -220 115 -220 q 233 -202 197 -220 q 297 -138 269 -183 q 321 -95 306 -125 q 354 -23 336 -65 q 361 -9 358 -16 q 318 86 340 36 q 265 205 291 147 q 214 316 238 263 q 172 408 190 369 q 129 491 147 459 q 97 541 112 523 q 68 567 81 559 q 36 579 54 575 q 27 638 27 604 q 108 636 68 637 q 184 636 148 636 l 273 636 l 323 637 q 369 638 348 638 q 359 579 369 602 q 301 562 322 572 q 273 535 280 552 q 273 491 266 518 q 300 426 280 465 q 331 356 313 395 q 368 274 350 316 q 404 190 387 231 q 423 140 415 163 q 437 172 430 155 l 533 413 "},"\"":{"x_min":83.34375,"x_max":393.09375,"ha":476,"o":"m 161 991 q 188 945 193 984 q 187 936 187 941 q 186 926 187 932 q 175 807 179 870 q 163 665 170 744 q 133 668 150 665 q 109 677 116 670 q 100 822 106 750 q 83 962 94 894 q 125 973 102 965 q 161 991 147 980 m 365 991 q 393 954 393 984 l 393 945 q 380 819 386 886 q 368 663 375 752 q 335 666 352 663 q 311 676 318 669 q 302 821 308 748 q 286 962 297 894 q 327 973 305 965 q 365 991 350 982 "},"g":{"x_min":56.953125,"x_max":654.21875,"ha":710,"o":"m 329 648 q 416 636 377 648 l 644 636 q 652 595 650 618 q 654 550 654 572 q 615 558 637 554 q 570 566 593 562 q 525 572 547 569 l 519 572 l 525 566 q 569 494 555 533 q 583 426 583 455 q 567 335 583 377 q 519 261 551 293 q 440 211 487 229 q 331 193 393 193 q 236 206 281 193 q 225 211 230 209 q 201 181 209 195 q 190 145 190 161 q 196 115 190 126 q 224 97 202 104 q 285 89 245 91 q 391 87 325 87 q 509 79 461 87 q 586 52 556 70 q 629 4 616 34 q 643 -66 643 -25 q 617 -163 643 -113 q 545 -253 591 -212 q 436 -320 500 -294 q 298 -345 373 -345 q 113 -297 169 -345 q 56 -158 56 -250 q 84 -66 56 -105 q 158 -8 109 -31 q 133 2 144 -2 q 102 40 111 18 q 93 94 93 62 q 119 183 93 140 q 166 241 138 215 l 155 250 q 100 320 120 277 q 79 418 79 362 q 95 507 79 465 q 142 581 111 550 q 220 630 173 612 q 329 648 266 648 m 298 -23 q 222 -20 254 -23 q 188 -63 198 -41 q 176 -129 176 -91 q 211 -236 176 -200 q 331 -272 245 -272 q 413 -259 377 -272 q 475 -226 450 -247 q 514 -177 501 -205 q 527 -120 527 -150 q 518 -75 527 -94 q 484 -45 509 -56 q 414 -29 459 -34 q 298 -23 369 -23 m 315 586 q 267 573 287 586 q 233 540 247 561 q 213 492 219 519 q 206 436 206 465 q 244 302 206 348 q 348 256 281 256 q 423 294 394 256 q 452 405 452 331 q 443 475 452 443 q 416 532 434 508 q 373 571 398 556 q 315 586 348 586 "},"e":{"x_min":55.5625,"x_max":602.828125,"ha":658,"o":"m 281 309 q 193 305 236 308 q 200 245 194 275 q 232 155 209 195 q 294 90 255 115 q 394 65 333 65 q 484 85 440 65 q 563 145 529 105 q 584 126 575 138 q 597 102 594 113 q 487 13 548 40 q 350 -12 426 -12 q 220 13 276 -12 q 128 84 165 40 q 73 189 91 129 q 55 318 55 250 q 75 444 55 384 q 132 550 95 504 q 222 622 169 595 q 343 648 276 648 q 458 625 411 648 q 536 563 505 602 q 582 472 566 525 q 602 361 598 420 q 581 313 597 333 l 511 313 q 404 313 463 313 q 281 309 345 312 m 202 461 q 191 376 194 426 l 458 376 q 425 525 458 468 q 330 581 391 581 q 280 571 305 581 q 235 534 255 561 q 202 461 215 506 "},"J":{"x_min":25,"x_max":420.859375,"ha":469,"o":"m 318 173 q 309 1 318 76 q 272 -134 300 -73 q 190 -246 244 -195 q 48 -345 137 -297 q 25 -309 29 -334 q 94 -241 63 -276 q 145 -164 125 -206 q 177 -70 166 -122 q 187 47 187 -19 l 187 762 q 167 856 187 832 q 91 883 147 880 q 84 943 84 902 q 161 939 115 940 q 252 938 206 938 q 347 939 298 938 q 420 943 395 940 q 413 883 420 902 q 339 856 361 880 q 318 762 318 832 l 318 173 "},"|":{"x_min":86.125,"x_max":155.5625,"ha":243,"o":"m 86 988 q 123 986 106 988 q 155 973 140 983 l 155 841 q 154 684 155 768 q 154 508 154 600 l 154 140 q 154 -36 154 48 q 155 -197 155 -122 l 155 -334 q 118 -330 140 -334 q 86 -319 95 -326 l 86 988 "},"ẞ":{"x_min":77.78125,"x_max":948.6875,"ha":1029,"o":"m 311 -1 q 270 0 291 0 l 187 0 q 149 0 169 0 q 110 -2 129 -1 q 77 -4 91 -2 q 79 27 77 12 q 84 55 80 43 q 130 65 112 58 q 159 89 148 72 q 175 138 170 106 q 180 223 180 170 l 180 583 q 207 756 180 687 q 284 866 234 825 q 400 925 333 908 q 545 941 466 941 q 583 941 566 941 q 615 940 600 940 q 648 939 630 940 q 690 938 666 938 q 769 939 730 938 q 855 943 808 940 q 868 913 862 929 q 873 877 873 897 q 779 715 836 808 q 665 540 726 626 q 775 511 725 531 q 868 451 829 487 q 927 366 907 415 q 948 261 948 318 q 929 154 948 204 q 872 67 909 104 q 780 9 834 30 q 658 -12 726 -12 q 524 7 579 -12 q 416 62 469 27 q 429 161 426 111 q 431 248 431 212 q 472 254 448 252 q 512 256 495 256 q 522 170 516 208 q 545 106 529 131 q 587 67 561 80 q 658 54 613 54 q 719 69 693 54 q 763 110 745 84 q 790 170 782 136 q 798 244 798 205 q 782 331 798 290 q 732 404 766 372 q 645 458 698 436 q 520 488 593 480 q 509 514 513 500 q 505 544 505 529 q 627 729 566 627 q 712 879 675 807 q 673 880 691 880 q 596 884 633 883 q 516 886 559 886 q 431 873 469 886 q 366 827 393 861 q 325 734 340 793 q 311 583 311 675 l 311 -1 "},"^":{"x_min":59.734375,"x_max":705.609375,"ha":772,"o":"m 384 894 q 231 709 306 802 q 97 531 156 615 q 73 560 81 545 q 59 597 65 575 l 345 951 q 382 963 361 961 q 422 963 404 966 q 486 868 450 920 q 559 762 522 816 q 635 656 597 708 q 705 561 673 604 q 670 546 693 550 q 627 547 647 543 l 384 894 "},"q":{"x_min":55.5625,"x_max":744.5,"ha":758,"o":"m 406 -280 q 461 -272 440 -279 q 494 -253 481 -266 q 511 -217 506 -240 q 516 -159 516 -194 l 516 27 q 522 97 516 62 q 533 161 526 123 q 522 133 527 147 q 497 87 509 104 q 462 53 483 69 q 417 25 441 37 q 366 5 393 12 q 311 -1 338 -1 q 214 17 261 -1 q 132 73 168 36 q 76 166 97 111 q 55 297 55 222 q 79 431 55 368 q 148 543 104 495 q 255 620 193 591 q 394 648 318 648 q 557 623 490 648 q 669 555 625 598 q 648 500 655 534 q 641 404 641 466 l 641 -159 q 661 -253 641 -229 q 737 -280 682 -277 q 743 -306 741 -293 q 744 -340 744 -320 q 711 -338 732 -338 q 668 -336 691 -337 q 619 -336 644 -336 l 572 -336 q 481 -336 527 -336 q 400 -340 436 -337 q 406 -280 400 -300 m 501 209 q 516 306 513 250 l 516 536 q 468 568 501 552 q 400 584 434 584 q 250 515 308 584 q 193 315 193 445 q 208 205 193 250 q 247 134 223 161 q 302 95 272 106 q 362 83 333 83 q 413 95 386 83 q 463 135 440 106 q 501 209 486 163 "},"b":{"x_min":13.890625,"x_max":704.21875,"ha":760,"o":"m 358 -12 q 195 14 262 -12 q 87 81 129 41 q 109 138 101 100 q 118 258 118 176 l 118 798 q 115 841 118 823 q 101 872 112 859 q 69 891 90 884 q 13 897 48 897 q 16 925 13 912 q 26 948 19 937 q 68 952 41 948 q 122 963 94 957 q 175 978 150 969 q 212 995 200 987 q 234 979 225 991 q 243 940 243 966 l 243 577 q 238 529 243 552 q 236 515 237 523 q 254 545 247 536 q 281 579 263 561 q 323 612 298 597 q 379 638 348 627 q 444 648 409 648 q 635 575 566 648 q 704 340 704 501 q 679 202 704 266 q 609 90 654 138 q 500 15 563 43 q 358 -12 436 -12 m 243 100 q 283 70 262 83 q 365 51 316 51 q 429 62 394 51 q 494 104 463 73 q 545 186 525 134 q 566 322 566 238 q 550 434 566 388 q 511 508 534 480 q 461 548 488 536 q 411 561 433 561 q 350 547 380 561 q 296 501 320 533 q 257 418 272 469 q 243 295 243 368 l 243 100 "},"D":{"x_min":79.171875,"x_max":966.75,"ha":1015,"o":"m 80 943 q 115 941 94 941 q 161 939 137 940 q 209 938 184 938 l 256 938 q 348 940 302 938 q 438 941 394 941 q 625 925 530 941 q 795 860 719 908 q 918 724 870 812 q 966 493 966 636 q 938 300 966 380 q 864 165 909 219 q 761 77 819 111 q 645 27 704 44 q 532 5 587 11 q 438 0 477 0 l 348 0 q 246 0 297 0 q 150 -2 195 -1 q 79 -4 105 -2 q 86 55 79 36 q 132 63 113 56 q 162 84 151 69 q 178 125 173 100 q 183 191 183 151 l 183 762 q 163 856 183 832 q 87 883 143 880 q 81 910 83 894 q 80 943 80 926 m 313 191 q 318 127 313 152 q 337 88 323 102 q 375 68 351 73 q 438 62 400 62 q 592 82 522 62 q 713 150 662 102 q 794 275 765 197 q 823 472 823 354 q 789 663 823 584 q 698 793 755 743 q 568 866 641 843 q 416 888 494 888 q 361 885 391 888 q 313 876 331 882 l 313 191 "},"z":{"x_min":70.84375,"x_max":633.390625,"ha":696,"o":"m 93 640 q 144 638 113 638 q 209 636 175 637 q 279 636 244 636 l 412 636 q 480 636 447 636 q 543 638 513 637 q 593 640 572 638 q 606 612 602 629 q 611 580 611 595 q 555 501 587 545 q 488 408 523 456 q 416 308 454 359 q 344 209 379 256 q 277 118 309 161 q 236 62 255 87 l 412 62 q 474 68 450 62 q 513 89 498 73 q 536 136 529 105 q 548 216 544 166 q 583 215 565 216 q 622 208 601 213 q 622 167 622 191 q 625 117 623 143 q 628 66 626 91 q 633 23 630 41 q 616 4 627 12 q 588 -2 605 -2 q 537 -2 562 -2 q 483 0 512 -1 q 419 0 454 0 l 340 0 q 189 0 248 0 q 93 -2 130 -1 q 77 21 83 6 q 70 52 70 36 q 127 132 94 86 q 197 230 161 179 q 272 336 234 281 q 345 438 311 390 q 405 527 379 487 q 437 575 425 555 l 309 575 q 247 569 272 575 q 204 547 222 563 q 176 502 187 530 q 155 427 165 473 q 118 429 138 427 q 83 438 98 431 q 90 536 87 484 q 93 640 93 587 "},"w":{"x_min":20.828125,"x_max":1054.25,"ha":1075,"o":"m 602 636 q 650 526 625 586 q 703 402 676 466 q 758 270 730 337 q 801 163 780 216 l 876 400 q 895 483 893 450 q 890 536 898 516 q 863 566 882 556 q 820 579 845 576 q 808 640 808 608 q 868 636 834 637 q 932 636 901 636 q 1054 640 1005 636 q 1043 579 1054 605 q 1016 566 1027 575 q 993 538 1004 556 q 969 487 982 519 q 940 404 957 455 l 800 -12 q 764 -9 780 -12 q 736 0 748 -6 q 686 121 712 58 q 632 248 659 184 q 576 375 604 312 q 541 455 558 416 l 359 -12 q 322 -9 336 -12 q 298 0 309 -6 q 206 248 254 126 q 106 497 159 370 q 75 552 91 536 q 29 579 59 569 q 22 609 23 593 q 20 638 20 626 q 79 636 48 637 q 156 636 111 636 q 238 636 202 636 q 309 640 273 637 q 308 608 309 626 q 302 579 306 590 q 236 553 244 572 q 243 495 227 534 q 311 318 276 413 q 368 165 341 237 l 547 641 q 576 640 561 641 q 602 636 591 638 "},"$":{"x_min":94.453125,"x_max":662.546875,"ha":758,"o":"m 344 -11 q 294 -6 318 -9 q 227 7 258 -2 q 164 34 195 18 q 94 76 133 51 q 104 181 102 129 q 106 273 106 234 q 143 279 122 277 q 181 281 163 281 q 195 187 184 229 q 229 115 206 145 q 290 69 252 86 q 344 55 313 59 l 344 412 q 327 419 336 416 q 224 481 272 445 q 144 569 176 516 q 112 707 112 622 q 131 806 112 761 q 183 884 150 851 q 262 933 216 916 q 344 950 300 947 l 344 1033 q 379 1030 365 1033 q 408 1018 393 1027 q 406 950 408 990 q 500 932 459 945 q 584 890 555 913 q 586 797 584 850 q 593 707 587 744 q 556 697 577 700 q 515 694 534 694 q 490 792 504 754 q 457 852 476 830 q 415 882 438 873 q 405 884 411 883 l 405 544 l 447 523 q 550 461 502 497 q 630 376 598 426 q 662 250 662 326 q 641 149 662 197 q 581 65 619 101 q 493 8 544 29 q 406 -11 452 -6 q 408 -126 408 -76 q 373 -122 393 -126 q 344 -111 354 -118 l 344 -11 m 405 380 l 405 54 q 455 65 433 56 q 504 97 484 77 q 534 142 523 116 q 544 197 544 168 q 512 298 544 259 q 431 365 480 337 q 405 380 419 373 m 263 651 q 343 581 295 612 l 344 580 l 344 888 q 268 854 297 883 q 231 751 231 818 q 263 651 231 690 "},"ȷ":{"x_min":18.0625,"x_max":279.1875,"ha":382,"o":"m 154 451 q 151 494 154 476 q 137 525 148 512 q 105 543 126 537 q 50 550 84 550 q 52 577 50 565 q 62 601 55 590 q 104 605 77 601 q 158 616 130 609 q 211 631 186 622 q 248 648 236 640 q 270 632 261 644 q 279 593 279 619 l 279 31 q 257 -98 279 -38 q 202 -206 236 -158 q 128 -289 169 -254 q 48 -345 87 -325 q 29 -330 37 -340 q 18 -306 20 -320 q 86 -219 59 -259 q 127 -140 112 -179 q 148 -59 143 -101 q 154 36 154 -16 l 154 451 "},"\\":{"x_min":34.71875,"x_max":473.65625,"ha":506,"o":"m 34 984 q 50 988 41 987 q 70 990 59 990 q 108 984 97 990 l 473 0 q 436 -5 462 -4 q 401 -4 411 -6 l 34 984 "},"~":{"x_min":58.34375,"x_max":754.234375,"ha":813,"o":"m 87 295 q 58 331 62 306 q 166 436 115 408 q 266 465 218 465 q 343 452 305 465 q 417 425 380 440 q 491 398 454 411 q 566 386 529 386 q 636 400 601 386 q 709 448 672 413 q 734 443 725 447 q 754 430 743 440 q 645 327 695 355 q 551 300 595 300 q 478 313 513 300 q 407 343 443 326 q 336 372 372 359 q 261 386 300 386 q 178 366 220 386 q 87 295 136 347 "},"-":{"x_min":83.34375,"x_max":498.65625,"ha":582,"o":"m 498 415 q 494 368 498 393 q 480 325 490 344 q 389 324 443 325 q 280 322 336 323 q 172 321 225 322 q 83 319 120 320 q 89 370 83 343 q 105 415 95 397 l 498 415 "},"Q":{"x_min":48.609375,"x_max":1063.96875,"ha":1043,"o":"m 48 472 q 84 666 48 577 q 181 818 119 754 q 327 916 243 882 q 506 951 411 951 q 691 916 607 951 q 836 818 775 882 q 932 667 897 755 q 966 472 966 579 q 932 281 966 369 q 837 127 898 193 q 691 25 776 62 q 670 15 682 19 q 754 -19 718 1 q 848 -77 804 -48 q 943 -124 893 -105 q 1063 -136 993 -143 q 1061 -163 1063 -148 q 1055 -191 1059 -177 q 975 -218 1015 -204 q 883 -255 936 -231 q 807 -223 837 -244 q 752 -177 776 -202 q 705 -125 727 -151 q 657 -75 683 -98 q 594 -34 630 -51 q 509 -12 558 -18 l 506 -12 q 319 24 404 -12 q 174 126 234 61 q 81 279 113 191 q 48 472 48 368 m 191 509 q 213 340 191 422 q 279 195 236 258 q 387 93 323 131 q 534 55 451 55 q 656 85 602 55 q 747 166 709 115 q 804 287 784 218 q 823 436 823 356 q 797 611 823 529 q 725 754 770 693 q 616 850 679 815 q 477 884 552 884 q 363 857 416 884 q 272 781 311 830 q 213 663 234 732 q 191 509 191 594 "},"M":{"x_min":55.5625,"x_max":1251.484375,"ha":1299,"o":"m 225 938 q 330 943 276 938 l 677 175 l 980 943 q 1032 939 1004 940 q 1088 938 1061 938 q 1141 939 1116 938 q 1194 943 1166 940 q 1193 913 1194 927 q 1187 883 1191 898 q 1143 877 1162 883 q 1111 854 1123 870 q 1093 811 1098 838 q 1093 743 1088 784 l 1143 233 q 1155 148 1148 181 q 1174 95 1162 115 q 1202 67 1186 76 q 1244 56 1219 58 q 1250 25 1248 41 q 1251 -4 1251 9 q 1213 -2 1234 -2 q 1170 0 1193 -1 q 1125 0 1148 0 l 1084 0 q 999 0 1047 0 q 915 -4 951 -1 q 917 25 915 8 q 923 55 919 41 q 976 66 957 58 q 1004 92 995 75 q 1012 139 1012 109 q 1008 215 1012 169 l 958 691 l 670 -2 q 613 -12 647 -12 l 290 690 l 245 244 q 242 153 240 188 q 254 97 244 118 q 285 67 265 76 q 336 55 305 58 q 341 22 340 40 q 343 -4 343 5 q 267 0 309 -1 q 194 0 225 0 q 123 0 163 0 q 55 -4 83 -1 q 56 22 55 5 q 62 55 58 40 q 109 66 90 58 q 140 95 127 75 q 161 155 152 116 q 175 256 169 194 l 219 751 q 205 854 226 826 q 126 883 184 883 q 120 913 122 897 q 119 943 119 930 q 169 939 140 940 q 225 938 198 938 "},"C":{"x_min":48.609375,"x_max":837.5625,"ha":907,"o":"m 512 951 q 671 933 600 951 q 820 879 743 915 q 807 776 809 830 q 805 663 805 722 q 770 654 787 657 q 732 651 754 651 q 713 772 729 725 q 671 846 698 819 q 606 884 644 873 q 523 894 569 894 q 373 862 436 894 q 271 777 311 830 q 213 654 231 723 q 194 513 194 586 q 218 340 194 420 q 288 200 243 259 q 399 106 333 140 q 548 72 465 72 q 684 94 615 72 q 812 154 754 116 q 828 134 820 147 q 837 111 836 120 q 756 56 795 79 q 675 18 716 33 q 588 -4 633 2 q 490 -12 543 -12 q 311 22 393 -12 q 172 122 230 58 q 81 277 113 187 q 48 476 48 368 q 88 684 48 595 q 192 833 127 773 q 340 922 256 893 q 512 951 423 951 "},"[":{"x_min":97.234375,"x_max":377.8125,"ha":431,"o":"m 97 1030 q 166 1027 133 1027 l 293 1027 q 362 1030 322 1027 q 375 1007 372 1022 q 377 977 377 993 q 286 967 322 973 q 230 947 251 961 q 202 911 209 934 q 194 847 194 887 l 194 -218 q 204 -270 194 -251 q 236 -299 215 -288 q 288 -313 256 -309 q 362 -318 320 -316 q 375 -341 372 -329 q 377 -373 377 -354 q 309 -370 348 -370 l 170 -370 q 97 -373 133 -370 l 97 1030 "},"L":{"x_min":79.171875,"x_max":751.453125,"ha":779,"o":"m 447 62 q 543 71 505 62 q 609 101 581 80 q 654 155 636 122 q 690 237 673 188 q 725 223 711 230 q 751 204 738 216 q 725 100 736 155 q 708 -2 715 45 q 657 -2 687 -2 q 591 0 627 -1 q 516 0 555 0 l 348 0 q 246 0 297 0 q 150 -2 195 -1 q 79 -4 105 -2 q 86 55 79 36 q 132 63 113 56 q 162 84 151 69 q 178 125 173 100 q 183 191 183 151 l 183 762 q 163 856 183 832 q 87 883 143 880 q 81 910 83 894 q 80 943 80 926 q 123 940 101 941 l 169 938 l 248 938 q 334 939 293 938 q 416 943 375 940 q 409 883 416 902 q 363 875 381 882 q 334 855 345 869 q 318 818 323 841 q 313 758 313 794 l 313 191 q 318 127 313 152 q 337 88 323 102 q 375 68 351 73 q 438 62 400 62 l 447 62 "},"!":{"x_min":201.40625,"x_max":369.46875,"ha":571,"o":"m 341 991 q 366 948 370 982 q 352 805 359 883 q 339 644 345 727 q 327 476 333 561 q 319 312 322 391 q 286 313 302 312 q 256 320 269 315 q 245 501 251 418 q 232 659 238 584 q 218 804 226 734 q 201 945 211 875 q 234 954 215 948 q 274 966 254 959 q 312 978 294 972 q 341 991 330 984 m 293 141 q 349 117 329 141 q 369 69 369 93 q 344 8 369 27 q 287 -11 319 -11 q 229 9 250 -11 q 208 62 208 30 q 231 118 208 94 q 293 141 255 141 "}," ":{"x_min":0,"x_max":0,"ha":278},"{":{"x_min":48.609375,"x_max":405.59375,"ha":489,"o":"m 384 1029 q 397 991 397 1009 q 302 922 326 968 q 277 820 277 877 q 282 755 277 788 q 293 687 287 722 l 304 619 q 309 554 309 586 q 302 485 309 518 q 276 425 295 452 q 222 375 256 397 q 133 341 187 354 q 221 305 187 327 q 275 254 255 283 q 303 190 295 225 q 311 119 311 156 q 297 -20 311 51 q 283 -156 283 -91 q 288 -214 283 -187 q 308 -265 294 -241 q 345 -306 322 -288 q 405 -336 369 -325 q 404 -359 405 -350 q 397 -376 404 -368 q 282 -322 326 -354 q 213 -254 238 -291 q 180 -174 188 -216 q 172 -87 172 -131 q 178 16 172 -34 q 184 116 184 68 q 179 180 184 150 q 159 236 173 211 q 117 282 144 262 q 48 316 90 302 q 49 338 48 329 q 55 361 50 348 q 121 393 95 375 q 161 436 147 412 q 181 488 176 461 q 187 547 187 516 q 179 652 187 597 q 170 762 170 708 q 179 841 170 802 q 211 913 187 879 q 276 977 234 948 q 384 1029 318 1007 "},"X":{"x_min":38.890625,"x_max":854.234375,"ha":886,"o":"m 370 734 q 483 559 429 645 l 586 719 q 626 793 613 763 q 635 842 638 823 q 614 870 632 861 q 565 883 597 879 q 559 915 561 898 q 558 943 558 932 q 630 939 593 940 q 700 938 668 938 q 771 939 732 938 q 837 943 811 940 q 836 913 837 929 q 832 883 836 898 q 800 871 815 879 q 766 846 784 863 q 725 800 748 829 q 672 723 702 770 l 523 497 q 536 476 529 486 q 694 218 616 348 q 744 138 723 169 q 782 90 765 108 q 814 65 800 73 q 845 55 829 58 q 854 -4 854 30 q 775 0 823 -1 q 684 0 727 0 q 595 0 641 0 q 516 -2 548 -1 q 518 25 516 9 q 522 55 519 40 q 565 64 548 58 q 586 86 581 70 q 580 128 590 101 q 544 200 570 155 q 426 394 486 297 l 305 215 q 256 102 252 137 q 329 55 259 68 q 334 25 333 40 q 336 -4 336 9 q 261 0 300 -1 q 183 0 222 0 q 105 0 144 0 q 38 -4 66 -1 q 40 25 38 6 q 47 58 41 43 q 120 97 80 66 q 212 200 161 129 l 390 454 l 387 458 q 220 716 306 586 q 161 804 183 772 q 125 852 140 836 q 97 873 109 868 q 69 882 86 879 q 62 913 63 898 q 61 943 61 927 q 143 939 97 940 q 230 938 190 938 q 318 939 269 938 q 398 941 366 940 q 397 913 398 929 q 393 883 395 898 q 347 868 363 877 q 327 843 330 859 q 334 800 323 826 q 370 734 345 773 "},"P":{"x_min":79.171875,"x_max":759.78125,"ha":810,"o":"m 347 886 q 312 880 333 884 l 312 204 q 319 130 312 158 q 341 86 326 102 q 379 63 356 69 q 436 55 402 56 q 443 -4 443 36 q 363 0 411 -1 q 268 0 316 0 l 215 0 q 162 0 188 0 q 114 -2 136 -1 q 79 -4 93 -2 q 86 55 79 36 q 161 82 141 58 q 181 176 181 106 l 181 762 q 161 856 181 832 q 86 883 141 880 q 79 943 79 902 q 184 939 133 940 q 268 938 234 938 q 354 940 304 938 q 465 941 405 941 q 597 919 541 941 q 688 859 652 897 q 742 769 725 820 q 759 659 759 718 q 740 552 759 607 q 681 452 720 497 q 582 379 641 408 q 444 351 523 351 q 391 355 415 351 q 347 366 366 359 q 345 390 344 377 q 348 412 345 402 q 425 404 383 404 q 500 413 463 404 q 564 448 536 423 q 610 516 593 473 q 627 626 627 559 q 613 732 627 684 q 570 815 600 780 q 497 869 541 850 q 390 888 452 888 q 347 886 366 888 "},"%":{"x_min":125.015625,"x_max":1075.09375,"ha":1158,"o":"m 241 -9 q 209 14 222 1 q 191 41 195 27 l 959 952 q 992 938 979 948 q 1018 912 1005 927 l 241 -9 m 869 431 q 959 413 920 431 q 1022 364 997 394 q 1061 296 1048 334 q 1075 220 1075 258 q 1060 131 1075 173 q 1017 56 1045 88 q 947 6 988 25 q 854 -12 907 -12 q 759 5 800 -12 q 691 54 718 23 q 650 122 663 84 q 636 201 636 161 q 650 288 636 247 q 694 362 665 330 q 767 413 723 394 q 869 431 811 431 m 850 373 q 811 361 829 373 q 779 329 793 350 q 757 280 765 308 q 750 219 750 252 q 780 95 750 144 q 866 45 811 45 q 900 55 883 45 q 930 84 916 65 q 953 133 944 104 q 962 201 962 162 q 931 325 962 276 q 850 373 900 373 m 355 940 q 443 921 405 940 q 507 872 481 902 q 546 805 533 843 q 559 730 559 768 q 545 641 559 683 q 502 568 530 600 q 434 517 475 536 q 341 498 394 498 q 246 516 287 498 q 178 565 205 534 q 138 633 151 595 q 125 711 125 670 q 139 797 125 755 q 183 870 154 838 q 255 921 212 902 q 355 940 298 940 m 337 882 q 262 838 293 882 q 231 729 231 795 q 263 605 231 654 q 352 556 295 556 q 387 566 369 556 q 420 595 405 576 q 444 643 434 615 q 454 711 454 672 q 421 834 454 786 q 337 882 388 882 "},"#":{"x_min":75,"x_max":813.953125,"ha":838,"o":"m 657 615 l 604 365 l 755 365 q 752 330 755 344 q 738 297 750 316 l 590 297 l 525 -11 q 486 0 498 -6 q 463 19 475 8 l 522 297 q 388 295 447 297 l 300 295 l 236 -11 q 176 25 193 -5 l 233 295 q 136 294 173 295 l 75 294 q 91 365 75 329 l 248 365 l 301 613 l 261 613 q 148 612 202 613 q 152 646 148 627 q 165 683 155 665 l 315 683 l 381 991 q 416 982 401 988 q 441 961 430 976 l 381 683 l 605 683 l 670 991 q 730 963 712 983 l 670 683 l 813 683 q 811 647 813 662 q 797 615 808 633 l 657 615 m 368 615 l 315 365 l 537 365 l 590 615 l 368 615 "},"_":{"x_min":83.34375,"x_max":702.828125,"ha":786,"o":"m 702 -127 q 698 -164 702 -143 q 687 -197 694 -186 q 595 -196 634 -197 q 519 -195 555 -195 l 308 -195 q 242 -196 276 -195 q 169 -197 208 -197 q 83 -198 130 -198 q 98 -127 83 -152 l 702 -127 "},"+":{"x_min":63.890625,"x_max":737.5625,"ha":803,"o":"m 363 193 q 365 288 365 241 l 365 330 l 333 330 q 242 329 288 330 q 150 328 195 329 q 63 327 104 327 q 67 366 63 343 q 77 398 70 388 l 365 398 l 365 515 q 364 592 365 551 q 363 687 363 633 q 395 699 379 697 q 433 701 412 701 l 433 398 l 737 398 q 735 361 737 377 q 723 329 733 344 q 629 329 669 329 q 554 330 588 330 l 433 330 l 433 22 q 400 11 423 15 q 362 8 377 8 q 363 97 362 50 q 363 193 363 144 "},")":{"x_min":48.609375,"x_max":355.578125,"ha":404,"o":"m 105 1029 q 219 846 172 933 q 297 675 266 759 q 341 507 327 591 q 355 333 355 423 q 288 -41 355 130 q 98 -376 220 -213 q 72 -377 87 -379 q 48 -369 58 -376 q 134 -212 98 -291 q 192 -47 169 -133 q 226 131 215 37 q 237 333 237 225 q 227 530 237 438 q 196 704 218 622 q 140 863 175 787 q 56 1012 105 938 q 77 1025 66 1020 q 105 1029 88 1030 "},"'":{"x_min":83.34375,"x_max":191.6875,"ha":275,"o":"m 162 991 q 191 958 188 987 l 191 945 q 178 819 183 884 q 166 662 173 754 q 134 666 151 662 q 111 676 118 669 q 101 821 108 750 q 83 962 94 893 q 125 973 102 965 q 162 991 147 982 "},"}":{"x_min":45.84375,"x_max":402.8125,"ha":460,"o":"m 66 1029 q 175 977 133 1007 q 240 913 216 948 q 272 841 263 879 q 280 762 280 802 q 272 652 280 708 q 263 547 263 597 q 269 488 263 516 q 289 436 275 461 q 329 393 304 412 q 395 361 355 375 q 402 338 401 348 q 402 316 402 329 q 334 282 361 302 q 292 236 306 262 q 272 180 277 211 q 266 116 266 150 q 272 16 266 68 q 279 -87 279 -34 q 270 -174 279 -131 q 237 -254 262 -216 q 168 -322 212 -291 q 54 -376 125 -354 q 46 -359 47 -368 q 45 -336 45 -350 q 143 -265 118 -313 q 168 -156 168 -218 q 154 -20 168 -91 q 140 119 140 51 q 147 190 140 156 q 175 254 155 225 q 229 305 195 283 q 318 341 263 327 q 229 375 263 354 q 175 425 194 397 q 148 485 155 452 q 141 554 141 518 q 147 619 141 586 l 158 687 q 168 755 163 722 q 173 820 173 788 q 149 922 173 877 q 54 991 125 968 q 66 1029 54 1009 "},"a":{"x_min":69.453125,"x_max":629.21875,"ha":671,"o":"m 425 315 q 350 303 388 311 q 279 280 311 295 q 225 238 247 265 q 204 165 204 211 q 229 90 204 113 q 286 66 254 66 q 332 77 308 66 q 377 112 356 88 q 411 172 398 136 q 425 262 425 209 l 425 315 m 550 206 q 564 118 550 140 q 629 95 579 95 q 627 61 629 80 q 619 30 625 43 q 542 13 583 25 q 472 -12 501 1 q 447 8 458 -6 q 437 55 437 23 q 438 90 437 76 q 440 113 440 104 q 424 77 434 95 q 388 37 413 59 q 331 3 365 16 q 250 -9 297 -9 q 114 29 159 -9 q 69 137 69 68 q 109 247 69 205 q 204 315 148 290 q 321 353 261 341 q 425 372 381 365 q 423 443 425 415 q 419 489 422 470 q 410 520 416 508 q 395 544 404 533 q 306 586 362 586 q 252 569 275 586 q 215 528 230 552 q 195 476 201 504 q 187 425 188 448 q 149 427 172 425 q 115 434 126 429 q 116 511 118 469 q 108 586 115 554 q 225 631 163 613 q 351 648 286 648 q 431 634 398 648 q 491 594 465 619 q 520 555 509 576 q 538 506 531 534 q 547 441 544 477 q 550 355 550 405 l 550 206 "},"T":{"x_min":34.71875,"x_max":776.453125,"ha":813,"o":"m 345 884 l 275 884 q 189 872 220 884 q 140 837 158 859 q 113 786 122 815 q 98 722 105 757 q 65 725 83 722 q 34 734 47 727 q 51 838 45 783 q 56 943 56 894 q 210 939 115 940 q 411 938 305 938 l 515 938 q 613 939 566 938 q 699 941 659 940 q 768 943 738 941 q 776 734 768 848 q 743 725 761 727 q 709 722 726 722 q 668 841 707 797 q 543 884 630 884 l 476 884 l 476 176 q 480 118 476 141 q 496 82 484 95 q 529 63 508 69 q 584 55 551 56 q 591 -4 591 36 q 500 0 547 -1 q 409 0 454 0 q 316 0 365 0 q 227 -4 266 -1 q 234 55 227 36 q 289 63 268 56 q 323 82 311 69 q 341 118 336 95 q 345 176 345 141 l 345 884 "},"=":{"x_min":61.109375,"x_max":688.9375,"ha":750,"o":"m 687 272 q 684 236 687 251 q 672 205 682 220 q 597 206 630 205 q 531 206 563 206 l 300 206 q 225 206 262 206 q 147 204 187 205 q 61 204 108 204 q 65 240 61 219 q 76 272 69 262 l 687 272 m 688 501 q 686 465 688 480 q 673 434 683 450 q 599 435 632 434 q 534 436 566 436 l 302 436 q 227 435 265 436 q 151 434 190 434 q 65 433 112 433 q 69 470 65 448 q 80 501 73 491 l 688 501 "},"N":{"x_min":79.171875,"x_max":975.078125,"ha":1053,"o":"m 712 943 q 778 939 743 940 q 843 938 813 938 q 909 939 872 938 q 975 943 947 940 q 973 913 975 929 q 968 883 972 898 q 929 873 944 883 q 904 841 913 863 q 890 780 894 818 q 886 686 886 743 l 886 -5 q 859 -11 875 -9 q 829 -12 844 -12 l 252 740 l 252 259 q 256 161 252 201 q 272 98 261 122 q 302 65 283 75 q 348 55 320 55 q 354 29 352 43 q 355 -4 355 15 q 286 0 323 -1 q 218 0 248 0 q 146 0 187 0 q 79 -4 105 -1 q 80 28 79 13 q 86 55 81 43 q 132 65 113 55 q 162 98 151 75 q 177 161 173 122 q 181 259 181 201 l 181 833 l 176 840 q 138 872 156 865 q 86 883 120 880 q 80 915 81 898 q 79 943 79 932 q 127 939 100 940 q 181 938 155 938 q 275 943 237 938 l 815 226 l 815 686 q 811 780 815 743 q 795 841 807 818 q 766 873 784 863 q 719 883 747 883 q 713 918 715 907 q 712 943 712 930 "},"2":{"x_min":90.28125,"x_max":655.609375,"ha":746,"o":"m 386 702 q 458 693 420 702 q 527 663 495 684 q 577 606 558 641 q 597 522 597 572 q 589 463 597 490 q 563 410 581 437 q 516 352 545 383 q 444 283 487 322 q 362 208 408 251 q 275 125 323 170 l 477 125 q 525 127 506 125 q 553 138 543 129 q 568 163 563 147 q 575 209 573 180 q 640 200 615 209 q 643 107 640 147 q 655 29 647 68 q 638 6 648 16 q 611 -2 627 -2 q 477 0 544 -1 q 337 0 409 0 l 280 0 q 218 0 250 0 q 156 -2 186 -1 q 108 -2 127 -2 q 93 22 97 9 q 90 54 90 34 q 210 164 150 109 q 327 269 270 219 q 392 333 366 304 q 434 389 418 362 q 456 444 450 416 q 462 504 462 472 q 453 550 462 529 q 427 588 444 572 q 389 615 411 605 q 343 625 368 625 q 254 586 284 625 q 209 445 223 547 q 170 447 191 445 q 134 455 148 450 q 137 497 136 473 q 138 545 138 520 q 137 593 138 569 q 131 636 136 616 q 184 666 158 654 q 240 687 209 679 q 306 699 270 695 q 386 702 341 702 "},"j":{"x_min":18.0625,"x_max":288.90625,"ha":393,"o":"m 154 451 q 151 494 154 476 q 137 525 148 512 q 105 543 126 537 q 50 550 84 550 q 52 577 50 565 q 62 601 55 590 q 104 605 77 601 q 158 616 130 609 q 211 631 186 622 q 248 648 236 640 q 270 632 261 644 q 279 593 279 619 l 279 31 q 257 -98 279 -38 q 202 -206 236 -158 q 128 -289 169 -254 q 48 -345 87 -325 q 29 -330 37 -340 q 18 -306 20 -320 q 86 -219 59 -259 q 127 -140 112 -179 q 148 -59 143 -101 q 154 36 154 -16 l 154 451 m 123 886 q 148 947 123 923 q 205 970 173 970 q 265 947 243 970 q 288 886 288 923 q 264 829 288 854 q 205 805 240 805 q 146 829 169 805 q 123 886 123 852 "},"Z":{"x_min":80.5625,"x_max":788.953125,"ha":876,"o":"m 141 941 q 205 941 162 941 q 297 939 248 940 q 395 938 347 938 l 611 938 q 747 941 672 938 q 758 922 754 934 q 762 895 762 909 q 504 456 633 669 q 256 58 383 255 l 470 58 q 577 64 534 58 q 646 89 619 70 q 689 143 673 108 q 716 234 705 177 q 788 211 762 230 q 771 108 777 165 q 763 -4 765 51 q 667 -2 712 -2 q 579 0 622 -1 q 491 0 536 0 l 306 0 q 220 0 261 0 q 145 -2 179 -1 q 91 -4 112 -2 q 83 16 86 6 q 80 40 80 26 q 343 466 213 255 q 590 883 468 672 l 393 883 q 314 877 347 883 q 259 851 281 870 q 220 797 236 832 q 194 705 205 762 q 152 708 176 705 q 115 719 129 711 q 134 824 127 763 q 141 941 141 884 "},"u":{"x_min":20.828125,"x_max":733.390625,"ha":782,"o":"m 515 458 q 511 501 515 483 q 497 531 508 519 q 466 549 486 543 q 411 556 445 555 q 412 584 411 572 q 420 608 413 595 q 526 622 475 611 q 609 648 577 633 q 631 631 622 644 q 640 587 640 618 l 640 188 q 643 145 640 163 q 655 115 645 127 q 683 97 665 104 q 733 90 701 91 q 732 60 733 75 q 725 30 730 45 q 686 27 709 30 q 638 18 662 23 q 592 4 613 12 q 558 -12 570 -4 q 534 5 545 -8 q 523 55 523 19 q 526 111 523 83 l 526 123 q 484 65 512 93 q 316 -5 413 -5 q 229 6 268 -5 q 165 47 191 19 q 125 123 138 76 q 112 241 112 170 l 112 451 q 110 494 112 476 q 98 524 108 512 q 70 542 88 536 q 20 550 52 548 q 22 577 20 565 q 30 601 23 588 q 75 607 51 602 q 123 618 100 612 q 168 632 147 625 q 206 648 190 640 q 228 631 219 644 q 237 587 237 618 l 237 272 q 265 122 237 166 q 362 79 293 79 q 418 93 390 79 q 467 136 445 106 q 502 210 488 165 q 515 316 515 255 l 515 458 "},"1":{"x_min":104.171875,"x_max":434.75,"ha":539,"o":"m 331 176 q 336 118 331 141 q 352 82 341 95 q 381 63 363 69 q 427 55 400 56 q 433 25 431 40 q 434 -4 434 11 q 390 -1 413 -2 l 344 0 l 269 0 q 186 0 231 0 q 104 -4 141 -1 q 105 25 104 11 q 111 55 106 40 q 185 82 163 58 q 206 176 206 106 l 206 518 q 202 574 206 551 q 187 611 198 597 q 158 631 176 625 q 111 638 140 637 q 104 698 104 666 q 142 696 120 697 q 186 695 163 695 q 230 694 209 694 l 269 694 q 357 695 313 694 q 434 698 401 695 q 427 638 434 666 q 352 611 372 636 q 331 518 331 586 l 331 176 "},"k":{"x_min":48.609375,"x_max":729.21875,"ha":757,"o":"m 152 798 q 150 841 152 823 q 136 872 147 859 q 104 891 125 884 q 48 897 83 897 q 51 925 48 912 q 61 948 54 937 q 102 952 76 948 q 156 963 129 957 q 209 978 184 969 q 247 995 234 987 q 268 979 259 991 q 277 940 277 966 l 277 362 l 370 448 q 438 518 418 491 q 459 559 459 544 q 419 581 459 581 q 411 638 411 608 q 491 636 455 636 l 613 636 q 686 638 648 636 q 684 609 686 625 q 676 580 682 593 q 597 561 636 579 q 506 495 558 543 l 386 386 q 409 358 397 372 q 461 300 434 331 q 518 230 487 268 q 584 147 548 193 q 625 100 608 118 q 657 75 641 83 q 688 63 672 66 q 729 59 705 61 q 722 0 729 19 q 631 -2 672 0 q 544 -12 590 -5 q 492 62 526 16 q 417 159 458 108 q 333 259 376 211 q 277 322 304 294 l 277 176 q 296 81 277 106 q 359 55 315 55 q 365 22 363 40 q 366 -4 366 5 q 290 0 330 -1 q 209 0 250 0 q 127 0 169 0 q 50 -4 84 -1 q 51 25 50 9 q 56 55 52 41 q 132 81 112 55 q 152 176 152 106 l 152 798 "},"ı":{"x_min":50,"x_max":368.078125,"ha":444,"o":"m 279 176 q 297 81 279 106 q 361 55 316 55 q 366 22 365 40 q 368 -4 368 5 q 291 0 331 -1 q 211 0 251 0 q 128 0 170 0 q 51 -4 86 -1 q 52 25 51 9 q 58 55 54 41 q 134 81 113 55 q 154 176 154 106 l 154 451 q 151 494 154 476 q 137 525 148 512 q 105 543 126 537 q 50 550 84 550 q 52 577 50 565 q 62 601 55 590 q 104 605 77 601 q 158 616 130 609 q 211 631 186 622 q 248 648 236 640 q 270 632 261 644 q 279 593 279 619 l 279 176 "},"€":{"x_min":62.5,"x_max":936.1875,"ha":1036,"o":"m 682 565 q 679 525 682 544 q 666 491 676 506 l 527 491 q 395 490 463 491 q 293 488 347 490 q 302 395 294 440 l 682 395 q 679 356 682 375 q 666 322 676 337 l 527 322 q 395 320 463 322 q 323 319 361 320 q 386 200 347 251 q 497 106 431 140 q 647 72 563 72 q 783 94 713 72 q 911 154 852 116 q 927 134 919 147 q 936 111 934 120 q 854 56 894 79 q 773 18 815 33 q 686 -4 732 2 q 588 -12 641 -12 q 410 22 491 -12 q 270 122 329 58 q 179 277 212 187 q 166 318 172 297 l 62 318 q 66 359 62 337 q 77 395 70 381 l 151 395 q 147 476 147 434 l 147 487 l 62 487 q 66 529 62 506 q 77 565 70 551 l 152 565 q 186 684 162 630 q 290 833 226 773 q 438 922 355 893 q 611 951 522 951 q 770 933 698 951 q 919 879 841 915 q 906 776 908 830 q 904 663 904 722 q 869 654 886 657 q 830 651 852 651 q 812 772 827 725 q 770 846 797 819 q 705 884 743 873 q 622 894 668 894 q 472 862 534 894 q 370 777 409 830 q 311 654 330 723 q 294 565 300 611 l 682 565 "},"<":{"x_min":66.203125,"x_max":625.046875,"ha":692,"o":"m 602 26 q 603 -15 607 6 q 588 -51 600 -38 q 455 48 518 2 q 331 138 393 94 q 206 227 270 181 q 68 322 143 272 q 66 360 65 340 q 80 398 68 380 l 559 783 q 596 769 581 777 q 625 745 611 761 l 136 358 l 602 26 "},"t":{"x_min":27.78125,"x_max":445.875,"ha":488,"o":"m 127 622 l 127 805 q 183 827 155 812 q 231 861 211 843 q 243 854 238 858 q 250 843 247 851 q 253 823 252 836 q 254 788 254 811 l 254 622 l 433 622 q 420 561 433 591 q 254 543 319 556 l 254 195 q 275 93 254 125 q 333 62 295 62 q 384 70 362 62 q 425 95 405 79 q 445 50 443 75 q 377 5 422 23 q 288 -12 333 -12 q 166 29 205 -12 q 127 166 127 70 l 127 543 q 84 554 106 550 q 27 561 62 558 q 30 592 27 579 q 40 622 33 605 l 127 622 "},"W":{"x_min":34.71875,"x_max":1358.4375,"ha":1393,"o":"m 34 943 q 113 939 68 940 q 191 938 159 938 l 229 938 q 272 939 250 938 q 318 941 295 940 q 359 943 340 941 q 358 916 359 932 q 352 883 356 900 q 295 875 316 880 q 267 856 275 870 q 265 813 259 841 q 287 740 270 786 q 334 604 309 676 q 384 457 359 531 q 433 309 409 383 q 461 223 447 265 l 698 943 q 723 948 709 947 q 759 950 737 950 q 832 761 794 859 q 908 563 870 663 q 982 365 945 463 q 1033 225 1008 293 l 1168 686 q 1187 774 1183 738 q 1184 832 1191 809 q 1155 867 1176 855 q 1101 883 1134 879 q 1093 914 1095 897 q 1091 943 1091 932 q 1226 938 1150 938 q 1294 939 1258 938 q 1358 943 1330 940 q 1356 913 1358 929 q 1348 883 1354 898 q 1316 868 1330 879 q 1289 836 1302 858 q 1262 777 1276 813 q 1232 682 1248 740 l 1029 -4 q 973 -12 1005 -12 q 905 172 941 76 q 832 365 869 268 q 758 558 795 462 q 694 720 725 641 l 458 -4 q 430 -10 447 -8 q 398 -12 413 -12 q 277 356 338 173 q 151 723 215 540 q 119 810 131 779 q 95 857 106 841 q 72 876 84 872 q 41 883 59 880 q 36 912 37 897 q 34 943 34 927 "},"v":{"x_min":31.953125,"x_max":723.671875,"ha":756,"o":"m 465 640 q 527 636 493 637 q 594 636 562 636 q 662 636 626 636 q 723 640 698 637 q 711 580 723 605 q 681 568 694 576 q 655 542 668 559 q 629 497 643 525 q 600 429 616 470 l 413 -12 q 379 -9 397 -12 q 350 0 362 -6 q 324 59 341 19 q 284 150 306 100 q 237 254 262 200 q 190 356 212 308 q 150 441 168 404 q 126 493 133 477 q 102 537 112 520 q 84 563 93 554 q 64 575 75 572 q 40 580 54 579 q 33 609 34 598 q 31 640 31 620 q 177 636 90 636 q 268 636 222 636 q 348 640 315 637 q 345 610 348 625 q 338 583 343 595 q 284 575 304 580 q 256 560 263 570 q 254 532 250 550 q 270 487 258 515 q 299 423 280 466 q 341 327 318 380 q 387 219 363 275 q 420 138 405 175 q 475 281 451 218 q 526 416 502 354 q 547 542 561 506 q 480 581 533 577 q 465 640 465 609 "},">":{"x_min":62.5,"x_max":621.34375,"ha":683,"o":"m 551 358 l 62 745 q 90 769 76 761 q 127 783 105 777 l 607 398 q 620 360 619 380 q 619 322 622 340 q 480 227 544 272 q 355 138 416 181 q 231 48 294 94 q 98 -51 169 2 q 84 -15 87 -38 q 84 26 80 6 l 551 358 "},"➙":{"x_min":83.34375,"x_max":832.015625,"ha":915,"o":"m 591 409 q 556 471 573 445 q 526 515 540 497 q 505 562 505 541 q 513 583 505 575 q 536 598 520 591 q 600 541 563 570 q 677 484 637 511 q 753 434 716 456 q 818 400 790 412 q 829 373 826 386 q 832 345 832 361 q 681 256 743 301 q 562 158 619 211 q 534 148 552 148 q 502 162 516 148 q 553 241 530 198 q 591 323 576 284 q 472 322 540 323 q 333 318 404 320 q 196 313 262 316 q 83 309 130 311 q 88 361 83 333 q 105 409 94 390 l 591 409 "},"s":{"x_min":55.5625,"x_max":538.9375,"ha":594,"o":"m 493 600 q 490 529 490 566 q 495 455 490 491 q 426 438 468 438 q 411 495 423 468 q 379 543 400 522 q 331 578 359 565 q 270 591 304 591 q 202 570 227 591 q 176 515 176 550 q 181 483 176 497 q 203 454 186 469 q 253 424 220 440 q 341 386 286 408 q 435 344 397 365 q 496 300 473 323 q 529 248 519 276 q 538 183 538 220 q 519 102 538 138 q 466 40 500 66 q 385 1 431 15 q 284 -12 338 -12 q 211 -9 243 -12 q 152 0 179 -5 q 102 16 125 6 q 55 38 79 26 q 58 77 56 55 q 59 124 59 100 q 59 171 59 148 q 56 211 58 194 q 88 222 68 219 q 129 226 108 226 q 183 95 140 138 q 298 52 226 52 q 386 77 355 52 q 418 141 418 102 q 411 174 418 159 q 388 202 405 188 q 343 229 372 215 q 268 263 313 244 q 172 306 211 286 q 109 350 133 326 q 73 403 84 373 q 62 475 62 433 q 85 552 62 519 q 143 606 108 584 q 218 638 177 627 q 293 648 258 648 q 402 636 355 648 q 493 600 450 623 "},"B":{"x_min":79.171875,"x_max":790.34375,"ha":878,"o":"m 225 938 q 325 940 275 938 q 423 941 375 941 q 536 932 483 941 q 631 900 590 923 q 695 838 672 877 q 719 738 719 800 q 665 586 719 648 q 518 509 611 523 q 621 493 572 506 q 708 453 670 480 q 768 381 745 426 q 790 273 790 337 q 771 166 790 216 q 712 79 752 116 q 609 21 672 43 q 456 0 545 0 l 363 0 q 255 0 309 0 q 153 -2 201 -1 q 79 -4 105 -2 q 86 55 79 36 q 132 63 113 56 q 162 84 151 69 q 178 125 173 100 q 183 191 183 151 l 183 762 q 163 856 183 832 q 87 883 143 880 q 81 910 83 894 q 80 943 80 926 q 147 939 108 940 q 225 938 187 938 m 313 459 l 313 191 q 319 122 313 148 q 339 83 325 97 q 379 64 354 69 q 443 59 404 59 q 593 111 545 59 q 641 254 641 162 q 614 358 641 318 q 544 421 587 398 q 449 452 501 444 q 345 459 397 459 l 313 459 m 334 880 q 313 876 325 879 l 313 522 l 356 522 q 466 536 423 522 q 534 576 509 551 q 568 632 559 601 q 577 697 577 663 q 558 787 577 751 q 508 845 538 823 q 441 875 477 866 q 370 883 405 883 q 334 880 351 883 "},"?":{"x_min":166.6875,"x_max":604.21875,"ha":746,"o":"m 380 991 q 470 979 429 991 q 541 945 511 968 q 587 890 570 923 q 604 813 604 857 q 572 695 604 745 q 503 598 541 645 q 434 498 465 551 q 402 373 402 445 q 406 327 402 356 q 418 279 411 298 q 393 270 405 272 q 368 268 381 268 q 324 330 344 283 q 304 437 304 377 q 317 518 304 483 q 350 583 330 554 q 392 637 369 612 q 434 687 415 662 q 467 739 454 712 q 480 801 480 766 q 446 897 480 861 q 368 934 412 934 q 286 893 315 934 q 245 755 256 851 q 203 759 226 755 q 166 769 180 762 q 169 814 168 794 q 170 853 170 834 q 170 891 170 872 q 166 932 169 909 q 251 973 201 954 q 380 991 301 991 m 383 147 q 442 122 420 147 q 463 70 463 97 q 437 6 463 26 q 377 -12 411 -12 q 316 9 337 -12 q 294 63 294 30 q 318 122 294 98 q 383 147 343 147 "},"H":{"x_min":79.171875,"x_max":969.515625,"ha":1047,"o":"m 736 451 l 654 451 q 525 450 591 451 q 397 447 459 450 q 312 443 348 445 l 312 176 q 332 82 312 106 q 408 55 352 58 q 415 -4 415 36 q 247 0 331 0 q 161 0 206 0 q 79 -4 115 -1 q 86 55 79 36 q 161 82 141 58 q 181 176 181 106 l 181 762 q 161 856 181 832 q 86 883 141 880 q 79 943 79 902 q 247 938 155 938 q 332 939 291 938 q 415 943 373 940 q 408 883 415 902 q 332 856 352 880 q 312 762 312 832 l 312 511 l 736 511 l 736 762 q 716 856 736 832 q 640 883 695 880 q 633 943 633 902 q 801 938 709 938 q 886 939 845 938 q 969 943 927 940 q 962 883 969 902 q 886 856 907 880 q 866 762 866 832 l 866 176 q 886 82 866 106 q 962 55 907 58 q 969 -4 969 36 q 801 0 886 0 q 715 0 761 0 q 633 -4 669 -1 q 640 55 633 36 q 716 82 695 58 q 736 176 736 106 l 736 451 "},"c":{"x_min":55.5625,"x_max":572.265625,"ha":621,"o":"m 572 108 q 479 18 534 48 q 344 -12 423 -12 q 239 8 291 -12 q 146 70 187 29 q 80 172 105 111 q 55 315 55 233 q 74 437 55 377 q 129 544 93 497 q 220 620 166 591 q 344 648 273 648 q 554 586 475 648 q 545 506 547 545 q 544 427 544 468 q 514 418 533 420 q 480 416 495 416 q 433 540 472 497 q 333 583 394 583 q 224 519 263 583 q 184 336 184 455 q 197 234 184 283 q 236 148 211 186 q 297 88 261 111 q 383 66 334 66 q 537 147 476 66 q 558 131 548 141 q 572 108 568 120 "},"&":{"x_min":75,"x_max":954.25,"ha":1031,"o":"m 794 141 q 827 111 811 123 q 860 93 843 100 q 900 81 877 86 q 954 76 922 77 q 952 45 954 62 q 945 13 951 29 q 898 11 926 13 q 841 6 870 9 q 786 -2 812 2 q 743 -12 759 -6 q 650 104 697 48 q 633 122 641 112 q 519 22 577 54 q 372 -13 454 -13 q 231 13 288 -13 q 140 84 175 40 q 90 181 105 127 q 75 288 75 236 q 90 387 75 341 q 134 472 106 433 q 198 543 161 511 q 252 584 225 565 l 241 604 q 209 693 220 648 q 197 788 197 738 q 212 865 197 827 q 256 932 227 902 q 328 978 286 961 q 425 995 370 995 q 527 984 484 995 q 613 947 569 972 q 606 868 608 911 q 607 784 604 826 q 570 775 590 777 q 533 773 550 773 q 500 898 527 862 q 416 934 473 934 q 337 903 368 934 q 306 815 306 872 q 312 757 306 784 q 332 698 318 729 q 372 630 347 668 q 437 543 397 593 q 487 481 459 515 q 556 402 515 448 q 654 291 597 355 q 672 272 663 281 q 726 369 707 326 q 759 463 748 418 q 750 542 773 518 q 655 581 727 566 q 648 611 651 595 q 645 640 645 626 q 713 636 675 637 q 787 636 752 636 q 862 636 822 636 q 926 640 902 637 q 925 611 926 627 q 920 583 923 595 q 858 543 877 568 q 825 469 838 518 q 779 345 807 406 q 716 223 755 293 q 794 141 752 186 m 390 93 q 502 115 452 93 q 587 175 544 134 q 555 212 572 194 q 462 318 509 266 q 368 426 415 370 q 295 516 327 473 l 279 538 q 222 461 247 504 q 191 329 191 406 q 207 227 191 270 q 250 153 223 183 q 313 108 277 123 q 390 93 350 93 "},"−":{"x_min":36.109375,"x_max":709.78125,"ha":746,"o":"m 709 398 q 707 361 709 377 q 695 329 705 344 q 599 329 637 329 q 529 330 561 330 l 387 330 q 213 329 295 330 q 36 327 130 329 q 39 366 36 343 q 50 398 43 388 l 709 398 "},"I":{"x_min":79.171875,"x_max":415.3125,"ha":493,"o":"m 181 762 q 161 856 181 832 q 86 883 141 880 q 79 943 79 902 q 247 938 155 938 q 332 939 291 938 q 415 943 373 940 q 408 883 415 902 q 332 856 352 880 q 312 762 312 832 l 312 176 q 332 82 312 106 q 408 55 352 58 q 415 -4 415 36 q 247 0 331 0 q 161 0 206 0 q 79 -4 115 -1 q 86 55 79 36 q 161 82 141 58 q 181 176 181 106 l 181 762 "},"G":{"x_min":48.609375,"x_max":925.078125,"ha":1015,"o":"m 720 251 q 716 325 720 298 q 700 366 712 352 q 663 384 687 380 q 601 390 640 388 q 595 419 597 401 q 593 454 593 437 q 669 450 619 451 q 762 450 719 450 q 854 450 805 450 q 925 452 902 451 q 923 422 925 440 q 916 390 922 404 q 883 384 895 388 q 863 366 870 380 q 853 325 855 352 q 851 251 851 298 l 851 188 q 854 136 851 159 q 869 91 858 112 q 716 17 809 47 q 505 -12 623 -12 q 318 22 402 -12 q 174 122 234 58 q 81 278 113 187 q 48 481 48 369 q 89 686 48 598 q 198 833 130 775 q 352 921 266 891 q 530 951 438 951 q 716 933 630 951 q 863 886 801 915 q 851 785 854 837 q 848 670 848 733 q 775 658 815 658 q 753 777 772 730 q 703 849 734 823 q 630 884 672 875 q 541 894 588 894 q 387 862 452 894 q 279 777 322 830 q 216 656 237 725 q 195 512 195 587 q 216 334 195 418 q 279 189 237 251 q 385 91 322 127 q 533 55 448 55 q 607 59 575 55 q 673 77 640 63 q 709 108 697 87 q 720 181 720 129 l 720 251 "},"`":{"x_min":-15.28125,"x_max":216.6875,"ha":369,"o":"m 216 745 q 189 739 204 738 q 161 743 175 740 q 70 874 112 818 q -15 977 29 930 q 47 993 12 991 q 118 988 83 994 q 159 868 136 929 q 216 745 183 808 "},"(":{"x_min":48.609375,"x_max":355.578125,"ha":404,"o":"m 298 1029 q 326 1027 316 1032 q 347 1012 336 1022 q 263 863 298 938 q 207 704 229 787 q 176 530 186 622 q 166 333 166 438 q 177 131 166 225 q 211 -47 188 37 q 270 -212 234 -133 q 355 -369 305 -291 q 331 -377 345 -376 q 305 -376 318 -379 q 115 -41 183 -213 q 48 333 48 130 q 62 507 48 423 q 106 675 76 591 q 184 846 137 759 q 298 1029 231 933 "},"U":{"x_min":79.171875,"x_max":901.46875,"ha":979,"o":"m 812 373 q 809 267 812 313 q 796 184 805 220 q 772 118 787 147 q 733 66 757 90 q 636 6 693 26 q 508 -12 579 -12 q 345 9 411 -12 q 240 72 280 30 q 184 177 201 115 q 168 320 168 240 l 168 762 q 164 822 168 800 q 152 857 161 844 q 127 875 143 869 q 86 883 111 880 q 80 913 81 898 q 79 943 79 929 q 152 939 106 940 q 240 938 197 938 q 326 939 283 938 q 401 943 369 940 q 400 913 401 929 q 394 883 398 898 q 345 875 363 880 q 316 858 326 870 q 302 822 305 845 q 298 762 298 800 l 298 340 q 309 230 298 281 q 347 141 320 179 q 420 82 375 104 q 534 61 465 61 q 611 72 569 61 q 682 113 652 84 q 709 150 698 130 q 727 198 720 169 q 738 267 734 227 q 741 362 741 306 l 741 707 q 738 789 741 757 q 724 842 734 822 q 695 871 713 862 q 645 883 676 880 q 640 916 641 904 q 638 943 638 927 q 700 939 662 940 q 769 938 737 938 q 837 939 801 938 q 901 943 873 940 q 900 920 901 933 q 894 883 898 907 q 854 871 870 880 q 829 843 838 862 q 816 790 819 823 q 812 707 812 757 l 812 373 "},"F":{"x_min":79.171875,"x_max":698.671875,"ha":753,"o":"m 669 943 q 674 891 670 919 q 681 832 677 862 q 688 774 684 802 q 698 723 693 745 q 671 710 687 713 q 636 707 655 707 q 622 770 633 738 q 586 827 612 802 q 518 868 561 852 q 408 883 475 883 l 312 883 l 312 475 l 380 475 q 452 479 423 475 q 500 497 481 484 q 526 531 518 509 q 534 587 534 554 q 567 595 552 593 q 601 597 581 597 q 598 520 598 561 l 598 365 q 601 284 598 320 q 567 286 581 284 q 537 291 552 287 q 525 351 534 327 q 498 389 516 375 q 452 409 480 404 q 380 415 423 415 l 312 415 l 312 204 q 319 130 312 158 q 341 86 326 102 q 379 63 356 69 q 436 55 402 56 q 443 -4 443 36 q 363 0 411 -1 q 268 0 316 0 l 215 0 q 162 0 188 0 q 114 -2 136 -1 q 79 -4 93 -2 q 86 55 79 36 q 161 82 141 58 q 181 176 181 106 l 181 762 q 161 856 181 832 q 86 883 141 880 q 79 943 79 902 q 131 941 101 941 q 193 939 162 940 q 255 938 225 938 l 312 938 q 544 940 454 938 q 669 943 634 941 "},"r":{"x_min":50,"x_max":554.21875,"ha":582,"o":"m 290 413 q 279 351 280 383 l 279 204 q 286 130 279 158 q 308 86 293 102 q 346 63 323 69 q 402 55 369 56 q 409 -4 409 36 q 330 0 377 -1 q 234 0 283 0 l 183 0 q 131 0 156 0 q 86 -2 106 -1 q 51 -4 65 -2 q 58 55 51 36 q 134 82 113 58 q 154 176 154 106 l 154 451 q 150 494 154 476 q 136 524 147 512 q 104 542 125 536 q 50 550 84 548 q 52 577 50 565 q 62 601 55 590 q 109 607 83 602 q 160 618 134 612 q 209 632 186 625 q 248 648 231 640 q 270 631 261 644 q 279 587 279 618 q 270 501 279 538 l 258 444 q 270 481 266 465 q 290 523 279 506 q 362 604 320 572 q 458 636 404 636 q 509 627 486 636 q 554 602 531 619 q 546 521 548 568 q 544 438 544 475 q 510 430 531 434 q 465 426 488 426 q 443 513 462 493 q 397 534 425 534 q 358 519 379 534 q 320 477 337 504 q 290 413 302 450 "},":":{"x_min":83.34375,"x_max":250.015625,"ha":333,"o":"m 173 187 q 229 163 209 187 q 250 115 250 138 q 225 54 250 73 q 168 34 200 34 q 109 55 130 34 q 88 108 88 76 q 112 163 88 140 q 173 187 136 187 m 168 601 q 224 577 204 601 q 244 529 244 552 q 219 468 244 487 q 162 448 194 448 q 104 469 125 448 q 83 522 83 490 q 106 577 83 554 q 168 601 130 601 "},"x":{"x_min":41.671875,"x_max":683.390625,"ha":724,"o":"m 419 141 q 377 202 400 170 q 338 259 359 231 l 281 175 q 245 83 237 111 q 294 55 254 55 q 300 28 298 44 q 302 -2 302 12 q 220 0 263 0 l 112 0 q 41 -2 84 0 q 43 28 41 12 q 50 55 44 44 q 85 62 68 56 q 120 81 102 68 q 159 119 138 95 q 205 179 179 143 l 301 313 q 250 386 275 350 q 197 459 220 427 q 148 522 168 498 q 115 559 129 547 q 89 577 101 572 q 61 583 77 581 q 51 638 51 604 q 119 636 81 637 q 197 636 156 636 l 279 636 q 356 638 320 636 q 354 609 356 625 q 350 583 352 594 q 293 560 301 580 q 329 480 284 540 l 359 438 q 391 394 375 418 l 447 480 q 480 558 483 536 q 431 583 477 580 q 425 609 426 595 q 423 638 423 623 q 477 636 450 637 q 547 636 505 636 q 615 636 588 636 q 663 638 641 637 q 661 609 663 623 q 655 583 658 594 q 627 578 640 581 q 600 564 613 575 q 571 536 587 554 q 534 487 555 518 l 431 341 q 491 261 461 302 q 556 169 529 209 q 595 114 579 136 q 625 79 612 93 q 650 61 638 66 q 676 55 662 55 q 682 28 682 41 q 683 -2 683 15 q 607 0 640 0 l 459 0 q 377 -2 418 0 q 378 29 377 15 q 383 55 379 43 q 441 75 431 56 q 419 141 451 93 "},"*":{"x_min":83.34375,"x_max":531.484375,"ha":615,"o":"m 394 922 q 358 832 376 882 q 323 734 340 783 q 419 753 373 743 q 518 779 465 763 q 529 734 526 761 q 529 686 533 708 q 431 691 484 688 q 327 694 379 693 q 375 609 351 648 q 429 523 400 569 q 392 498 412 508 q 344 486 372 488 q 320 577 334 527 q 290 676 305 627 q 224 605 254 640 q 161 529 194 570 q 124 557 143 538 q 98 598 105 576 q 178 650 134 620 q 263 709 222 679 q 176 749 219 732 q 83 786 133 766 q 98 829 87 805 q 129 866 109 852 q 202 807 161 838 q 284 744 244 775 q 295 840 291 794 q 301 940 298 886 q 347 938 320 943 q 394 922 375 934 "},"V":{"x_min":34.71875,"x_max":918.125,"ha":953,"o":"m 312 732 q 429 458 372 595 q 536 195 481 331 q 629 438 584 319 q 726 713 679 572 q 741 833 752 790 q 665 883 730 876 q 659 915 661 898 q 658 943 658 932 q 716 939 688 940 q 776 938 744 938 q 847 939 808 938 q 918 943 887 940 q 916 913 918 927 q 911 883 915 898 q 843 830 868 872 q 794 719 819 788 q 663 359 729 538 q 526 -2 597 179 q 472 -8 502 -8 q 391 193 431 93 q 310 386 350 293 q 234 566 270 480 q 163 723 197 651 q 125 805 140 775 q 98 852 111 836 q 73 875 86 869 q 41 883 61 880 q 36 916 37 900 q 34 943 34 932 q 110 939 62 940 q 202 938 158 938 q 370 943 291 938 q 363 883 370 915 q 310 874 330 880 q 284 852 290 868 q 284 807 277 836 q 312 732 291 779 "},"h":{"x_min":48.609375,"x_max":777.84375,"ha":826,"o":"m 688 176 q 709 79 688 104 q 770 55 729 55 q 776 29 775 43 q 777 -4 777 15 q 708 0 747 -1 q 626 0 669 0 q 538 -1 583 0 q 461 -4 493 -2 q 468 55 461 36 q 541 81 518 55 q 563 176 563 106 l 563 387 q 554 468 563 436 q 527 520 544 501 q 486 548 509 540 q 434 556 462 556 q 379 544 406 556 q 329 504 351 531 q 292 432 306 476 q 277 325 277 388 l 277 176 q 298 81 277 106 q 373 55 319 55 q 379 29 377 43 q 380 -4 380 15 q 304 -1 351 -2 q 215 0 258 0 q 126 0 172 0 q 50 -4 80 -1 q 56 55 50 36 q 131 81 111 55 q 152 176 152 106 l 152 798 q 150 841 152 823 q 136 872 147 859 q 104 891 125 884 q 48 897 83 897 q 51 925 48 912 q 61 948 54 937 q 102 952 76 948 q 156 963 129 957 q 209 978 184 969 q 247 995 234 987 q 268 979 259 991 q 277 940 277 966 l 277 587 q 276 550 277 570 q 268 505 275 529 q 276 521 272 512 q 288 541 280 530 q 319 575 300 558 q 364 607 338 593 q 421 631 390 622 q 490 641 452 641 q 565 629 529 641 q 629 591 601 618 q 672 522 657 565 q 688 415 688 479 l 688 176 "},"0":{"x_min":55.5625,"x_max":779.234375,"ha":835,"o":"m 381 632 q 295 611 333 632 q 233 556 258 591 q 195 474 208 520 q 181 373 181 427 q 200 268 181 322 q 255 168 219 213 q 342 95 291 123 q 458 66 393 66 q 544 87 508 66 q 603 143 580 108 q 637 225 626 179 q 648 323 648 272 q 631 425 648 370 q 579 525 613 479 q 495 601 545 570 q 381 632 445 632 m 422 702 q 554 679 490 702 q 668 612 618 657 q 748 502 718 568 q 779 354 779 437 q 750 202 779 270 q 672 86 720 134 q 558 13 623 38 q 422 -12 493 -12 q 283 13 350 -12 q 165 86 216 38 q 85 202 115 134 q 55 354 55 270 q 87 502 55 437 q 171 612 119 568 q 288 679 223 657 q 422 702 354 702 "},".":{"x_min":83.34375,"x_max":244.46875,"ha":328,"o":"m 168 141 q 224 117 204 141 q 244 69 244 93 q 219 8 244 27 q 162 -11 194 -11 q 104 9 125 -11 q 83 62 83 30 q 106 118 83 94 q 168 141 130 141 "},"@":{"x_min":175.015625,"x_max":1212.59375,"ha":1389,"o":"m 698 648 q 772 644 738 648 q 825 636 795 641 q 854 638 838 636 q 894 648 875 641 q 909 638 904 645 q 918 617 915 632 q 923 578 922 602 q 925 515 925 554 l 925 250 q 926 168 925 198 q 932 121 927 137 q 947 100 937 105 q 975 95 958 95 q 1025 120 995 95 q 1080 195 1054 145 q 1125 318 1107 245 q 1144 487 1144 391 q 1118 629 1144 562 q 1041 748 1093 697 q 911 829 988 800 q 732 859 834 859 q 525 819 613 859 q 378 708 437 779 q 290 540 319 637 q 261 329 261 443 q 290 121 261 220 q 381 -53 320 22 q 534 -173 443 -129 q 751 -218 626 -218 q 968 -180 866 -218 q 1143 -59 1069 -143 q 1186 -94 1177 -65 q 1106 -173 1154 -138 q 999 -231 1058 -208 q 872 -268 940 -255 q 732 -280 804 -280 q 485 -236 590 -280 q 311 -111 380 -191 q 209 77 243 -31 q 175 316 175 187 q 213 550 175 441 q 324 741 251 659 q 503 869 397 822 q 745 916 609 916 q 950 883 862 916 q 1095 793 1037 850 q 1183 660 1154 736 q 1212 498 1212 584 q 1183 292 1212 386 q 1109 131 1154 198 q 1008 25 1063 63 q 901 -12 952 -12 q 827 23 847 -12 q 807 123 807 59 l 807 226 q 777 143 794 180 q 704 29 747 72 q 611 -12 662 -12 q 486 52 533 -12 q 438 275 438 118 q 457 425 438 356 q 511 543 476 494 q 593 620 545 593 q 698 648 640 648 m 812 511 q 813 544 813 529 q 757 573 787 563 q 690 586 722 586 q 593 522 623 586 q 563 316 563 459 q 588 148 563 195 q 647 101 613 101 q 688 124 663 101 q 738 193 713 147 q 783 309 762 240 q 811 461 802 375 q 812 511 812 486 "},"f":{"x_min":50,"x_max":583.375,"ha":475,"o":"m 286 622 l 427 622 q 425 591 427 608 q 413 559 422 573 q 286 543 340 559 l 286 204 q 293 130 286 158 q 315 86 300 102 q 353 63 330 69 q 409 55 376 56 q 416 -4 416 36 q 337 0 384 -1 q 241 0 290 0 l 190 0 q 138 0 163 0 q 93 -2 113 -1 q 58 -4 72 -2 q 65 55 58 36 q 140 82 120 58 q 161 176 161 106 l 161 547 q 100 556 130 554 q 50 559 70 559 q 69 622 50 597 l 161 622 l 161 677 q 186 814 161 755 q 252 913 211 873 q 345 972 293 952 q 451 991 397 991 q 532 981 505 991 q 583 957 559 970 q 579 872 580 912 q 577 794 577 832 q 538 786 559 788 q 498 783 518 783 q 473 877 498 840 q 390 915 448 915 q 309 864 333 915 q 286 720 286 813 l 286 622 "},";":{"x_min":83.34375,"x_max":276.40625,"ha":360,"o":"m 198 584 q 254 560 234 584 q 275 512 275 536 q 250 451 275 470 q 193 431 225 431 q 134 452 155 431 q 113 505 113 473 q 137 561 113 537 q 198 584 161 584 m 229 134 q 276 34 276 116 q 264 -46 276 -6 q 231 -123 252 -86 q 184 -194 211 -161 q 127 -256 156 -227 q 83 -236 100 -256 q 149 -141 126 -187 q 172 -59 172 -95 q 106 9 172 1 q 109 49 106 23 q 118 93 111 75 q 177 109 150 100 q 229 134 205 119 "},"i":{"x_min":50,"x_max":368.078125,"ha":419,"o":"m 123 886 q 148 947 123 923 q 205 970 173 970 q 265 947 243 970 q 288 886 288 923 q 264 829 288 854 q 205 805 240 805 q 146 829 169 805 q 123 886 123 852 m 279 176 q 297 81 279 106 q 361 55 316 55 q 366 22 365 40 q 368 -4 368 5 q 291 0 331 -1 q 211 0 251 0 q 128 0 170 0 q 51 -4 86 -1 q 52 25 51 9 q 58 55 54 41 q 134 81 113 55 q 154 176 154 106 l 154 451 q 151 494 154 476 q 137 525 148 512 q 105 543 126 537 q 50 550 84 550 q 52 577 50 565 q 62 601 55 590 q 104 605 77 601 q 158 616 130 609 q 211 631 186 622 q 248 648 236 640 q 270 632 261 644 q 279 593 279 619 l 279 176 "},"6":{"x_min":48.609375,"x_max":640.328125,"ha":696,"o":"m 575 843 q 401 787 476 822 q 276 694 326 752 q 200 548 226 636 q 183 475 190 515 q 227 502 206 490 q 280 529 255 519 q 329 543 305 538 q 380 548 354 548 q 570 483 500 548 q 640 294 640 418 q 616 168 640 225 q 552 72 593 112 q 459 9 512 31 q 347 -12 406 -12 q 122 75 197 -12 q 48 333 48 163 q 97 593 48 488 q 222 761 147 697 q 388 853 298 825 q 561 886 479 882 q 571 868 568 877 q 575 843 575 859 m 248 455 q 177 420 218 447 q 175 338 175 381 q 194 198 175 254 q 242 110 213 143 q 302 64 270 77 q 359 51 334 51 q 431 69 401 51 q 479 115 461 87 q 507 177 498 143 q 516 243 516 211 q 497 352 516 309 q 447 421 477 395 q 383 456 418 447 q 318 466 348 466 q 248 455 283 466 "},"A":{"x_min":34.71875,"x_max":943.125,"ha":978,"o":"m 443 941 q 497 947 466 947 l 827 188 q 857 125 844 150 q 882 85 870 100 q 906 64 894 70 q 934 55 918 58 q 941 25 940 37 q 943 -4 943 12 q 912 -3 932 -4 q 869 -1 893 -2 l 823 0 l 784 0 q 745 0 768 0 q 700 -2 722 -1 q 657 -3 677 -2 q 627 -4 637 -4 q 629 27 627 12 q 637 55 630 43 q 682 63 666 58 q 704 81 698 69 q 705 112 709 93 q 687 163 701 131 l 626 305 q 436 304 536 305 q 258 300 340 302 l 222 204 q 202 90 190 122 q 272 55 215 59 q 281 -4 281 31 q 221 0 258 -1 q 150 0 184 0 q 84 -1 115 0 q 34 -4 54 -2 q 36 25 34 9 q 44 54 38 41 q 76 66 62 58 q 102 91 90 75 q 127 135 115 108 q 155 204 138 162 l 443 941 m 284 368 l 600 368 l 494 615 q 477 654 484 636 q 461 691 469 672 q 445 729 454 709 q 431 765 440 745 q 405 686 418 719 q 380 616 393 650 l 284 368 "},"n":{"x_min":50,"x_max":779.234375,"ha":828,"o":"m 690 176 q 710 79 690 104 q 772 55 730 55 q 777 29 776 43 q 779 -4 779 15 q 709 0 748 -1 q 627 0 670 0 q 539 -1 584 0 q 462 -4 494 -2 q 469 55 462 36 q 542 81 519 55 q 565 176 565 106 l 565 387 q 555 468 565 436 q 528 520 545 501 q 487 548 511 540 q 436 556 463 556 q 380 544 408 556 q 330 504 352 531 q 293 432 308 476 q 279 325 279 388 l 279 176 q 300 81 279 106 q 375 55 320 55 q 380 29 379 43 q 381 -4 381 15 q 306 -1 352 -2 q 216 0 259 0 q 127 0 173 0 q 51 -4 81 -1 q 58 55 51 36 q 133 81 112 55 q 154 176 154 106 l 154 451 q 150 494 154 476 q 136 524 147 512 q 104 542 125 536 q 50 550 84 548 q 52 577 50 565 q 62 601 55 590 q 109 607 83 602 q 160 618 134 612 q 209 632 186 625 q 248 648 231 640 q 270 631 261 644 q 279 587 279 618 q 277 550 279 570 q 269 505 276 529 q 277 521 273 512 q 290 541 281 530 q 320 575 301 558 q 366 607 340 593 q 422 631 391 622 q 491 641 454 641 q 566 629 530 641 q 630 591 602 618 q 674 522 658 565 q 690 415 690 479 l 690 176 "},"O":{"x_min":48.609375,"x_max":966.75,"ha":1015,"o":"m 48 472 q 84 666 48 577 q 181 818 119 754 q 327 916 243 882 q 506 951 411 951 q 691 916 607 951 q 836 818 775 882 q 932 667 897 755 q 966 472 966 579 q 932 281 966 369 q 837 127 898 193 q 692 25 776 62 q 506 -12 608 -12 q 319 24 404 -12 q 174 126 234 61 q 81 279 113 191 q 48 472 48 368 m 191 509 q 213 340 191 422 q 279 195 236 258 q 387 93 323 131 q 534 55 451 55 q 656 85 602 55 q 747 166 709 115 q 804 287 784 218 q 823 436 823 356 q 797 611 823 529 q 725 754 770 693 q 616 850 679 815 q 477 884 552 884 q 363 857 416 884 q 272 781 311 830 q 213 663 234 732 q 191 509 191 594 "},"3":{"x_min":69.453125,"x_max":643.109375,"ha":713,"o":"m 365 694 q 502 695 451 694 q 591 697 554 695 q 606 672 602 687 q 608 641 609 658 q 502 511 562 586 q 372 344 443 436 q 472 330 423 347 q 559 279 520 313 q 620 191 597 244 q 643 69 643 138 q 617 -47 643 8 q 543 -145 591 -102 q 427 -212 495 -187 q 272 -237 358 -237 q 151 -219 202 -237 q 69 -175 100 -201 q 73 -152 69 -163 q 88 -129 77 -140 q 150 -154 106 -141 q 265 -168 194 -168 q 347 -154 305 -168 q 424 -113 390 -140 q 480 -45 458 -86 q 502 50 502 -4 q 452 184 502 130 q 301 238 402 238 q 256 229 275 238 q 238 254 245 240 q 231 277 231 268 q 371 457 315 383 q 463 583 427 531 l 294 583 q 243 579 263 583 q 209 566 223 576 q 184 536 194 555 q 163 486 173 518 q 133 490 148 486 q 106 504 118 494 q 120 602 118 555 q 122 697 122 648 q 216 695 156 695 q 365 694 276 694 "},"]":{"x_min":61.109375,"x_max":341.6875,"ha":429,"o":"m 341 -373 q 266 -370 305 -370 l 127 -370 q 61 -373 90 -370 q 63 -341 61 -354 q 76 -318 66 -329 q 150 -313 118 -316 q 202 -299 181 -309 q 234 -270 223 -288 q 244 -218 244 -251 l 244 847 q 236 911 244 887 q 208 947 229 934 q 152 967 187 961 q 61 977 116 973 q 63 1007 61 993 q 76 1030 66 1022 q 144 1027 116 1027 l 270 1027 q 341 1030 305 1027 l 341 -373 "},"m":{"x_min":50,"x_max":1179.265625,"ha":1228,"o":"m 62 601 q 105 606 80 602 q 156 618 130 611 q 204 632 181 625 q 241 648 227 640 q 263 632 254 644 q 272 593 272 619 q 269 540 272 569 q 266 505 269 526 q 275 525 272 518 q 288 548 284 543 q 318 582 300 565 q 362 614 337 600 q 419 638 387 629 q 487 648 451 648 q 594 622 545 648 q 665 531 643 595 q 670 497 669 518 q 679 518 675 509 q 694 541 686 530 q 724 575 705 558 q 768 607 743 593 q 825 631 794 622 q 893 641 857 641 q 967 629 932 641 q 1029 591 1002 618 q 1073 522 1057 565 q 1088 415 1088 479 l 1088 176 q 1093 117 1088 140 q 1109 81 1098 94 q 1135 62 1119 68 q 1172 55 1151 56 q 1177 29 1176 43 q 1179 -4 1179 15 q 1108 0 1147 -1 q 1027 0 1069 0 q 941 0 986 0 q 862 -4 897 -1 q 869 55 862 36 q 945 82 925 58 q 965 176 965 106 l 965 387 q 955 468 965 436 q 929 520 945 501 q 888 548 912 540 q 837 556 865 556 q 783 544 811 556 q 733 504 755 531 q 697 432 711 476 q 683 325 683 388 l 683 176 q 688 117 683 140 q 705 81 694 94 q 735 62 716 68 q 780 55 754 56 q 786 29 784 43 q 787 -4 787 15 q 707 0 751 -1 q 622 0 662 0 q 538 0 581 0 q 456 -4 494 -1 q 463 55 456 36 q 539 82 519 58 q 559 176 559 106 l 559 394 q 550 475 559 443 q 523 527 540 508 q 483 555 506 547 q 431 563 459 563 q 377 551 405 563 q 327 511 350 538 q 291 439 305 483 q 277 331 277 395 l 277 176 q 298 82 277 106 q 375 55 319 58 q 380 29 379 43 q 381 -4 381 15 q 299 0 345 -1 q 216 0 252 0 q 132 0 180 0 q 51 -4 84 -1 q 58 55 51 36 q 134 82 113 58 q 154 176 154 106 l 154 451 q 150 494 154 476 q 136 524 147 512 q 104 542 125 536 q 50 550 84 548 q 52 577 50 565 q 62 601 55 590 "},"9":{"x_min":55.5625,"x_max":672.28125,"ha":721,"o":"m 518 156 q 530 200 525 177 q 447 148 487 165 q 340 129 398 129 q 229 147 281 129 q 139 201 177 166 q 78 284 101 236 q 55 393 55 333 q 79 525 55 468 q 145 622 104 583 q 243 682 187 662 q 365 702 300 702 q 598 609 525 702 q 672 336 672 516 q 645 168 672 244 q 576 31 619 93 q 477 -76 533 -29 q 359 -156 420 -123 q 237 -209 298 -190 q 125 -236 176 -229 q 113 -212 115 -223 q 111 -186 111 -201 q 302 -94 220 -144 q 437 18 383 -44 q 518 156 491 80 m 487 231 q 541 265 518 243 q 544 326 544 295 q 529 469 544 409 q 489 567 515 529 q 427 623 463 605 q 345 641 390 641 q 280 625 309 641 q 229 582 251 609 q 196 518 208 555 q 184 441 184 481 q 206 324 184 368 q 261 256 227 280 q 333 224 294 231 q 406 216 372 216 q 487 231 448 216 "},"l":{"x_min":48.609375,"x_max":366.703125,"ha":417,"o":"m 152 798 q 150 841 152 823 q 136 872 147 859 q 104 891 125 884 q 48 897 83 897 q 51 925 48 912 q 61 948 54 937 q 102 952 76 948 q 156 963 129 957 q 209 978 184 969 q 247 995 234 987 q 268 979 259 991 q 277 940 277 966 l 277 176 q 296 81 277 106 q 359 55 315 55 q 365 22 363 40 q 366 -4 366 5 q 290 0 330 -1 q 209 0 250 0 q 127 0 169 0 q 50 -4 84 -1 q 51 25 50 9 q 56 55 52 41 q 132 81 112 55 q 152 176 152 106 l 152 798 "},"8":{"x_min":76.390625,"x_max":629.21875,"ha":706,"o":"m 191 415 q 263 465 223 440 q 150 561 190 515 q 102 683 102 613 q 118 758 102 722 q 163 822 133 794 q 238 867 193 850 q 341 884 283 884 q 527 838 459 884 q 594 700 594 791 q 578 624 594 657 q 537 566 562 591 q 480 519 512 540 q 434 493 456 505 q 477 462 456 477 q 560 388 526 426 q 611 309 594 351 q 629 216 629 266 q 607 121 629 163 q 548 49 586 79 q 459 3 511 19 q 345 -12 406 -12 q 235 4 284 -12 q 150 49 186 20 q 95 115 115 77 q 76 195 76 154 q 89 283 76 244 q 128 354 102 322 q 191 415 154 387 m 450 323 q 315 431 402 373 q 262 387 284 409 q 223 337 238 363 q 202 279 208 311 q 195 206 195 248 q 211 129 195 161 q 251 78 226 97 q 306 51 276 59 q 369 43 337 43 q 412 50 388 43 q 456 75 436 58 q 491 119 477 91 q 505 188 505 147 q 450 323 505 265 m 366 536 q 384 525 375 530 q 445 584 426 552 q 469 682 469 622 q 433 791 469 754 q 348 829 397 829 q 265 800 297 829 q 233 711 234 770 q 262 618 231 657 q 366 536 293 580 "},"p":{"x_min":48.609375,"x_max":738.953125,"ha":795,"o":"m 393 -12 q 323 -5 352 -12 q 277 5 302 0 l 277 -148 q 286 -213 279 -188 q 309 -252 294 -237 q 347 -272 325 -266 q 401 -280 369 -279 q 408 -340 408 -300 q 329 -336 376 -337 q 233 -336 281 -336 l 181 -336 q 130 -336 155 -336 q 84 -338 105 -337 q 50 -340 63 -338 q 56 -280 50 -300 q 132 -253 112 -277 q 152 -159 152 -229 l 152 451 q 149 494 152 476 q 134 524 145 512 q 103 542 123 536 q 48 550 83 548 q 51 577 48 565 q 61 601 54 590 q 107 607 81 602 q 159 618 133 612 q 207 632 184 625 q 247 648 230 640 q 268 631 259 644 q 277 587 277 618 q 268 526 277 555 q 254 483 262 508 l 268 511 q 288 545 281 534 q 316 579 298 561 q 358 612 333 597 q 413 638 383 627 q 479 648 444 648 q 670 576 601 648 q 738 352 738 504 q 713 208 738 275 q 643 92 688 141 q 534 15 598 43 q 393 -12 470 -12 m 291 418 q 277 316 279 375 l 277 100 q 318 70 297 83 q 400 51 351 51 q 463 62 429 51 q 529 104 498 73 q 580 186 559 134 q 601 322 601 238 q 556 496 601 431 q 445 561 512 561 q 385 547 415 561 q 331 501 355 533 q 291 418 306 469 "},"4":{"x_min":62.5,"x_max":759.78125,"ha":829,"o":"m 598 0 l 598 -211 q 566 -214 586 -211 q 529 -222 547 -218 q 498 -231 512 -226 q 483 -237 484 -236 q 468 -191 468 -222 l 468 0 l 458 0 q 263 -2 351 0 q 87 -8 176 -5 q 70 14 79 0 q 62 44 62 29 q 108 104 81 69 q 165 182 134 140 q 229 272 195 225 q 297 369 262 320 q 363 464 330 416 q 428 556 397 512 q 487 637 459 600 q 536 702 515 675 q 570 699 552 702 q 598 688 587 695 l 598 109 l 719 109 q 759 97 747 109 q 742 48 750 77 q 734 0 734 19 l 598 0 m 468 109 l 468 495 l 211 109 l 468 109 "},"R":{"x_min":79.171875,"x_max":915.34375,"ha":951,"o":"m 245 938 q 361 940 304 938 q 477 941 419 941 q 613 923 556 941 q 707 874 670 905 q 762 800 744 843 q 780 708 780 758 q 713 544 780 611 q 548 455 652 483 q 581 422 566 438 q 619 375 601 401 q 656 316 637 350 q 702 234 676 283 q 798 102 751 147 q 915 55 845 58 q 914 25 915 38 q 909 -4 913 11 q 800 -5 857 -4 q 691 -12 743 -6 q 637 79 669 22 q 572 202 605 136 q 494 327 540 266 q 413 423 458 377 q 312 423 356 420 l 312 176 q 331 82 312 106 q 404 55 351 58 q 409 27 408 43 q 411 -4 411 11 q 319 0 366 -1 q 245 0 272 0 l 205 0 q 160 0 183 0 q 115 -2 137 -1 q 79 -4 94 -2 q 80 26 79 11 q 86 55 81 41 q 161 82 141 58 q 181 176 181 106 l 181 762 q 161 857 181 832 q 86 883 141 883 q 80 911 81 897 q 79 941 79 925 q 148 939 100 940 q 245 938 197 938 m 358 888 q 312 880 336 886 l 312 491 q 338 488 326 488 q 373 487 355 487 q 479 499 430 487 q 566 536 529 511 q 623 601 602 562 q 644 694 644 640 q 592 836 644 782 q 415 891 540 891 q 358 888 383 891 "},"\r":{"x_min":0,"x_max":0,"ha":695},"o":{"x_min":55.5625,"x_max":683.390625,"ha":739,"o":"m 195 347 q 245 129 195 205 q 380 54 295 54 q 504 122 463 54 q 544 301 544 191 q 529 417 544 365 q 488 506 513 469 q 428 562 462 543 q 355 581 394 581 q 235 516 275 581 q 195 347 195 451 m 55 318 q 78 449 55 388 q 143 554 101 509 q 242 623 184 598 q 369 648 300 648 q 501 625 443 648 q 600 557 559 601 q 661 452 640 513 q 683 318 683 391 q 660 186 683 247 q 596 81 637 125 q 497 12 555 37 q 369 -12 440 -12 q 240 11 298 -12 q 140 77 181 34 q 77 181 100 120 q 55 318 55 243 "},"5":{"x_min":83.34375,"x_max":584.765625,"ha":668,"o":"m 186 697 q 253 695 222 695 q 312 694 284 694 l 426 694 q 482 713 466 694 q 498 761 498 733 q 528 766 511 765 q 561 768 545 768 q 554 686 555 730 q 552 594 552 643 q 531 576 545 583 q 490 569 518 569 l 427 569 q 347 568 388 569 q 271 567 306 568 q 222 565 236 566 l 188 425 q 350 379 277 405 q 475 313 423 352 q 556 220 527 273 q 584 93 584 166 q 552 -49 584 12 q 469 -152 519 -111 q 359 -215 419 -194 q 243 -237 298 -237 q 147 -225 190 -237 q 83 -193 105 -212 q 101 -147 83 -169 q 157 -161 119 -154 q 237 -168 195 -168 q 316 -152 279 -168 q 383 -108 354 -137 q 429 -37 412 -79 q 445 55 445 4 q 416 159 445 115 q 339 235 386 204 q 236 284 293 266 q 125 308 179 302 q 107 327 113 315 q 101 351 101 340 l 186 697 "}}}
